<?xml version="1.0" encoding="UTF-8"?>
<svg version="1.1" xmlns="http://www.w3.org/2000/svg" width="596" height="590">
<path d="M0 0 C1.32 0.33 2.64 0.66 4 1 C3.67 1.66 3.34 2.32 3 3 C3.84290484 2.5126712 4.68580968 2.02534239 5.55425709 1.52324605 C9.39913337 -0.17644332 11.94615159 -0.37395011 16.13188648 -0.3719368 C16.83003476 -0.37569793 17.52818305 -0.37945906 18.24748734 -0.38333416 C20.5865739 -0.39227645 22.92505046 -0.37983533 25.26411438 -0.36749268 C26.95817344 -0.36951717 28.65223134 -0.3728567 30.34628552 -0.37739825 C35.00147293 -0.38605191 39.65646103 -0.37597551 44.31163108 -0.36285591 C49.33219881 -0.35196505 54.35274797 -0.35836981 59.37332153 -0.36264038 C69.20948688 -0.36827738 79.04557435 -0.35795156 88.88172642 -0.34235242 C100.33537515 -0.32482271 111.78900872 -0.32339334 123.24266877 -0.32273683 C143.68059484 -0.32104817 164.11848543 -0.305227 184.55639648 -0.28125 C204.38843073 -0.25800066 224.22044247 -0.24382659 244.05249023 -0.24023438 C245.27348045 -0.24001161 246.49447066 -0.23978884 247.75246058 -0.23955932 C250.21217262 -0.23911672 252.67188466 -0.2386747 255.1315967 -0.23823325 C256.34495946 -0.23801369 257.55832223 -0.23779412 258.80845356 -0.2375679 C260.01875121 -0.23735192 261.22904886 -0.23713593 262.4760222 -0.2369134 C281.37278528 -0.2332108 300.26954473 -0.22185036 319.16630382 -0.2094375 C326.01500161 -0.20500442 332.86369907 -0.20156522 339.71239773 -0.19881538 C350.57872277 -0.19437954 361.4450344 -0.18659492 372.31135098 -0.17204097 C377.27643834 -0.16544167 382.24151392 -0.1603693 387.20660591 -0.15958023 C391.75333956 -0.15879162 396.30004343 -0.15336857 400.84676781 -0.14426073 C402.49007382 -0.1417587 404.13338339 -0.14091686 405.776691 -0.14191952 C413.5779132 -0.14575951 421.2618688 -0.09869684 429 1 C429 1.66 429 2.32 429 3 C429.99 3 430.98 3 432 3 C432 3.66 432 4.32 432 5 C433.65 4.67 435.3 4.34 437 4 C437.33 4.66 437.66 5.32 438 6 C438.66 5.67 439.32 5.34 440 5 C440.33 5.99 440.66 6.98 441 8 C442.5778125 8.433125 442.5778125 8.433125 444.1875 8.875 C448.52601639 10.15521795 450.65310283 12.016896 454 15 C455.65532623 16.01866229 457.32260138 17.01810813 459 18 C460.28101324 18.83882247 461.5514543 19.69394845 462.8125 20.5625 C463.41707031 20.97628906 464.02164063 21.39007812 464.64453125 21.81640625 C465.09183594 22.20699219 465.53914062 22.59757812 466 23 C466 23.66 466 24.32 466 25 C466.66 25.185625 467.32 25.37125 468 25.5625 C476.17709367 29.48069072 483.73993889 37.6816541 489 45 C492.59706307 49.40311337 492.59706307 49.40311337 496.5859375 53.4375 C498.31007082 55.34261969 498.87376661 56.9898 499.625 59.4375 C499.98464844 60.58025391 499.98464844 60.58025391 500.3515625 61.74609375 C500.94866305 63.8215577 501.49314622 65.90086028 502 68 C502.99 68 503.98 68 505 68 C506.90250216 73.58067299 506.90250216 73.58067299 507.44140625 75.8984375 C508.31556712 79.18723854 509.7299532 82.24158141 511.0625 85.3671875 C512.90074058 90.5295798 513.12511663 95.57760272 513.12584114 101.02091408 C513.12729458 101.70705335 513.12874802 102.39319263 513.13024551 103.100124 C513.13389345 105.39812147 513.13042469 107.6960521 513.12698364 109.99404907 C513.12813593 111.65867153 513.12972418 113.32329373 513.13171089 114.9879154 C513.1358893 119.56147798 513.13382021 124.13501973 513.13072467 128.7085824 C513.12846479 133.64111631 513.1319531 138.57364661 513.13470459 143.50617981 C513.13915475 153.16818455 513.13818921 162.83018152 513.13529195 172.49218656 C513.13303523 180.34241106 513.13272656 188.19263339 513.13381577 196.04285812 C513.13404561 197.71761225 513.13404561 197.71761225 513.13428011 199.42619979 C513.13459983 201.69419866 513.13492404 203.96219753 513.1352527 206.2301964 C513.13810522 227.5040658 513.1348239 248.77793089 513.12945233 270.05179958 C513.12498328 288.31708729 513.12576151 306.58236865 513.13037109 324.84765625 C513.13571876 346.0475676 513.13783184 367.24747517 513.13475883 388.4473871 C513.13444027 390.70651587 513.1341259 392.96564464 513.13381577 395.22477341 C513.13366149 396.33637707 513.13350721 397.44798073 513.13334826 398.59326936 C513.13248378 406.4376853 513.13394449 414.28209886 513.13629532 422.12651443 C513.13909559 431.68084586 513.13835017 441.23516906 513.13301457 450.78949954 C513.13038084 455.66688316 513.12936701 460.54425305 513.13266373 465.42163658 C513.13563331 469.88236892 513.13402274 474.34307476 513.12868617 478.80380468 C513.12756485 480.42145136 513.12814691 482.03910025 513.13056196 483.65674551 C513.13358377 485.84811866 513.13050284 488.03939993 513.12584114 490.2307682 C513.12567879 491.45021523 513.12551644 492.66966226 513.12534916 493.92606223 C513 497 513 497 512.42963493 499.23557699 C511.77959779 501.22495245 511.77959779 501.22495245 513 504 C512.0625 506.1875 512.0625 506.1875 511 508 C510.34 508 509.68 508 509 508 C508.40929986 509.94603274 508.40929986 509.94603274 508 512 C508.33 512.33 508.66 512.66 509 513 C507.68 513.66 506.36 514.32 505 515 C505.33 515.99 505.66 516.98 506 518 C504.75 521.625 504.75 521.625 503 525 C502.01 525.33 501.02 525.66 500 526 C500.33 527.32 500.66 528.64 501 530 C500.34 530 499.68 530 499 530 C498.67 531.32 498.34 532.64 498 534 C497.01 534 496.02 534 495 534 C494.34 535.65 493.68 537.3 493 539 C492.34 539 491.68 539 491 539 C490.87625 540.1446875 490.87625 540.1446875 490.75 541.3125 C489.84730645 544.54715191 488.86406539 545.35099265 486 547 C485.34 547 484.68 547 484 547 C483.87625 548.11761719 483.87625 548.11761719 483.75 549.2578125 C482.83153603 552.61594638 481.64818562 553.65898356 479 555.875 C478.19046875 556.555625 477.3809375 557.23625 476.546875 557.9375 C475.70640625 558.618125 474.8659375 559.29875 474 560 C473.20078125 560.66 472.4015625 561.32 471.578125 562 C467.8123929 565.03280438 464.58397416 567.34912819 460 569 C460 569.99 460 570.98 460 572 C457.69 572.66 455.38 573.32 453 574 C453 574.99 453 575.98 453 577 C451.390625 578.38671875 451.390625 578.38671875 449.25 579.6875 C448.55390625 580.12449219 447.8578125 580.56148437 447.140625 581.01171875 C445 582 445 582 441 582 C441 582.66 441 583.32 441 584 C435.7237072 585.36792776 430.47304843 586.5062207 425.1015625 587.4375 C422.80101483 587.86549498 422.80101483 587.86549498 421 590 C418.09702289 590.24839699 418.09702289 590.24839699 414.28831291 590.24609566 C413.58701852 590.24840335 412.88572412 590.25071103 412.16317838 590.25308865 C409.78950911 590.25842488 407.41610571 590.24937482 405.04244995 590.24050903 C403.33305584 590.24138036 401.62366199 590.24313 399.91426957 590.24568737 C395.19850285 590.25017921 390.48282624 590.24213212 385.76707101 590.23213124 C380.68866739 590.22352537 375.6102692 590.22641486 370.53186035 590.22793579 C361.72703718 590.22898646 352.92224356 590.22269087 344.11742783 590.21146011 C331.38701491 590.19523269 318.65661634 590.18999994 305.92619421 590.18748413 C285.27386745 590.18310268 264.62155647 590.16978141 243.96923828 590.15087891 C223.90283284 590.13253172 203.83643167 590.11836954 183.77001953 590.10986328 C182.53392881 590.10933783 181.29783809 590.10881239 180.02429007 590.10827102 C173.82342587 590.10566102 167.62256163 590.10313358 161.42169738 590.10064721 C109.94778735 590.07990072 58.47389444 590.04466299 7 590 C7 589.34 7 588.68 7 588 C3.7 587.34 0.4 586.68 -3 586 C-3 585.34 -3 584.68 -3 584 C-3.66 584 -4.32 584 -5 584 C-5 583.34 -5 582.68 -5 582 C-5.78375 582.20625 -6.5675 582.4125 -7.375 582.625 C-8.674375 582.810625 -8.674375 582.810625 -10 583 C-10.66 582.34 -11.32 581.68 -12 581 C-13.6635479 580.32558869 -15.33066942 579.6599679 -17 579 C-18.67063747 578.00664799 -20.33675599 577.00568242 -22 576 C-23.37299609 575.34991737 -24.74814192 574.70436254 -26.125 574.0625 C-29.2745411 572.51149957 -31.29962995 571.18819384 -33 568 C-33 567.34 -33 566.68 -33 566 C-33.556875 565.731875 -34.11375 565.46375 -34.6875 565.1875 C-39.08138746 562.93117941 -42.67964072 560.5719404 -46.171875 557.05859375 C-47.29142578 555.93614258 -47.29142578 555.93614258 -48.43359375 554.79101562 C-49.19800781 554.01435547 -49.96242187 553.23769531 -50.75 552.4375 C-51.52988281 551.65697266 -52.30976562 550.87644531 -53.11328125 550.07226562 C-58.85942293 544.28115414 -58.85942293 544.28115414 -60 542 C-60.99 541.67 -61.98 541.34 -63 541 C-63.33 538.69 -63.66 536.38 -64 534 C-64.99 533.67 -65.98 533.34 -67 533 C-67 531.68 -67 530.36 -67 529 C-67.66 529 -68.32 529 -69 529 C-69.40992187 528.24074219 -69.81984375 527.48148438 -70.2421875 526.69921875 C-70.78101562 525.70535156 -71.31984375 524.71148438 -71.875 523.6875 C-72.40867187 522.70136719 -72.94234375 521.71523438 -73.4921875 520.69921875 C-75.00722126 517.90413542 -75.00722126 517.90413542 -77 515 C-78.1875 511.4375 -78.1875 511.4375 -79 508 C-78.67 507.34 -78.34 506.68 -78 506 C-78.66 506 -79.32 506 -80 506 C-80.495 504.515 -80.495 504.515 -81 503 C-81.66 503 -82.32 503 -83 503 C-83.02289236 451.10007965 -83.04051146 399.20015981 -83.05106533 347.30023541 C-83.05231603 341.17199938 -83.05361035 335.04376336 -83.05493164 328.91552734 C-83.05519395 327.69551363 -83.05545626 326.47549991 -83.05572652 325.21851608 C-83.06007699 305.46814973 -83.06796113 285.7177863 -83.0771528 265.96742168 C-83.08650663 245.6994615 -83.09205928 225.43150285 -83.09408849 205.1635406 C-83.09546012 192.65867757 -83.09979126 180.15382278 -83.10791647 167.64896229 C-83.11320524 159.07216459 -83.11479943 150.49537113 -83.11350138 141.91857192 C-83.11286134 136.9713787 -83.11383775 132.02419986 -83.11920547 127.0770092 C-83.12408903 122.5428375 -83.12430621 118.00868979 -83.12089889 113.47451696 C-83.12047807 111.83905135 -83.12173184 110.20358421 -83.12488318 108.56812158 C-83.13967068 100.41607446 -83.00940784 92.34710837 -82.2145223 84.22370124 C-81.96799166 82.0405445 -81.96799166 82.0405445 -82 80 C-80.68 80 -79.36 80 -78 80 C-77.73316406 79.30132812 -77.46632813 78.60265625 -77.19140625 77.8828125 C-75.91486507 74.79400138 -74.45584794 71.85200653 -72.9375 68.875 C-71.42716917 65.91342219 -70.05151186 63.15453558 -69 60 C-68.34 60 -67.68 60 -67 60 C-66.67 58.68 -66.34 57.36 -66 56 C-65.34 56 -64.68 56 -64 56 C-63.855625 55.4225 -63.71125 54.845 -63.5625 54.25 C-63.04166667 52.16666667 -62.52083333 50.08333333 -62 48 C-62.66 48 -63.32 48 -64 48 C-64.33 48.99 -64.66 49.98 -65 51 C-64.67 49.35 -64.34 47.7 -64 46 C-62.68 46.66 -61.36 47.32 -60 48 C-59.443125 47.278125 -58.88625 46.55625 -58.3125 45.8125 C-56 43 -56 43 -53.3125 40.4375 C-50.96578842 37.96393915 -50.75213092 37.11597094 -50 34 C-48.06164314 32.79688195 -46.13170341 32.04938878 -44 31.25 C-41.68733786 29.99732752 -41.68733786 29.99732752 -39.9375 26.875 C-38.9784375 25.451875 -38.9784375 25.451875 -38 24 C-37.01 24 -36.02 24 -35 24 C-34.67 21.36 -34.34 18.72 -34 16 C-33.34 16 -32.68 16 -32 16 C-31.34 16.99 -30.68 17.98 -30 19 C-29.01 18.67 -28.02 18.34 -27 18 C-27 17.34 -27 16.68 -27 16 C-25.68 16 -24.36 16 -23 16 C-23 15.34 -23 14.68 -23 14 C-22.01 13.67 -21.02 13.34 -20 13 C-18.79117904 10.99983534 -18.79117904 10.99983534 -18 9 C-18 9.66 -18 10.32 -18 11 C-17.01 11 -16.02 11 -15 11 C-15 10.34 -15 9.68 -15 9 C-13.36503879 6.85708967 -12.39066259 6.08838825 -9.73828125 5.48828125 C-8.93777344 5.43027344 -8.13726562 5.37226562 -7.3125 5.3125 C-6.50425781 5.24675781 -5.69601563 5.18101562 -4.86328125 5.11328125 C-4.24839844 5.07589844 -3.63351563 5.03851562 -3 5 C-3 4.34 -3 3.68 -3 3 C-1.35 3.33 0.3 3.66 2 4 C1.01 2.02 1.01 2.02 0 0 Z M-80 83 C-79 85 -79 85 -79 85 Z " fill="#253F9A" transform="translate(83,0)"/>
<path d="M0 0 C1.07765625 0.53496094 2.1553125 1.06992188 3.265625 1.62109375 C35.20903967 18.00912521 58.95670188 48.0917234 70 82 C70.34357544 82.97718994 70.34357544 82.97718994 70.6940918 83.97412109 C72.61168327 89.50147425 74.01352346 95.02172537 75.1875 100.75 C75.36474609 101.57371094 75.54199219 102.39742188 75.72460938 103.24609375 C76.55329673 107.21995358 77.24074455 110.91564423 77 115 C59.10277588 122.43455284 40.52499128 127.21819703 21 126 C20.86013672 125.4423999 20.72027344 124.8847998 20.57617188 124.31030273 C13.41136196 96.27596812 0.25675633 75.39639002 -24.875 60.26953125 C-45.74827951 48.99216218 -67.42641282 48.89493853 -90 54.6875 C-101.47180075 58.14178667 -111.08367708 64.08292017 -120 72 C-120.68578125 72.59167969 -121.3715625 73.18335938 -122.078125 73.79296875 C-138.98199389 89.39909967 -147.0857263 113.60518485 -149 136 C-149.15479626 140.75681386 -149.15753774 145.51310086 -149.16113281 150.27197266 C-149.1657688 151.70854823 -149.17079449 153.14512259 -149.17617798 154.58169556 C-149.18922984 158.46633504 -149.19573289 162.3509573 -149.20018864 166.23561525 C-149.20313139 168.66935102 -149.20723843 171.1030822 -149.21169281 173.53681564 C-149.22534948 181.17103349 -149.23502476 188.80524072 -149.2388947 196.43946993 C-149.24336943 205.2154962 -149.26089781 213.99136626 -149.2898953 222.76734507 C-149.31159971 229.57531534 -149.32160365 236.38324194 -149.32293582 243.19124639 C-149.32397771 247.24599383 -149.32975263 251.30059408 -149.34775543 255.35530472 C-149.36438829 259.17542239 -149.366319 262.99528461 -149.35761642 266.81542587 C-149.35685407 268.20603374 -149.36108082 269.59665623 -149.37107468 270.98722839 C-149.55500214 298.20764845 -139.61248501 321.57317749 -121.0078125 341.08984375 C-112.89438747 348.7679992 -101.59646196 354.65119446 -91 358 C-90.08347656 358.29777344 -89.16695312 358.59554688 -88.22265625 358.90234375 C-79.94214089 361.12344614 -71.84787907 361.28244381 -63.3125 361.3125 C-61.60235718 361.32071777 -61.60235718 361.32071777 -59.85766602 361.32910156 C-36.92655607 361.13636127 -16.35022367 351.98789185 0 336 C9.67683991 325.80008766 16.03636265 313.02954805 21 300 C21.91265625 300.25523437 21.91265625 300.25523437 22.84375 300.515625 C28.62982261 302.1153039 34.43171369 303.64738302 40.25 305.125 C41.2409668 305.38071777 41.2409668 305.38071777 42.25195312 305.64160156 C50.30663284 307.66938129 58.17514924 308.23458627 66.4375 308.5625 C67.45521484 308.60568359 68.47292969 308.64886719 69.52148438 308.69335938 C72.01421028 308.79868582 74.50702338 308.90081672 77 309 C74.35604404 338.984284 59.39348002 363.62976404 39 385 C37.83791016 386.24136719 37.83791016 386.24136719 36.65234375 387.5078125 C31.55571802 392.81117966 26.18007845 397.02772576 20 401 C18.98808594 401.66 17.97617187 402.32 16.93359375 403 C-16.68727693 424.36199725 -56.05832794 429.60318137 -95 424 C-95.68078613 423.90348145 -96.36157227 423.80696289 -97.06298828 423.70751953 C-122.99518557 419.85845588 -144.46785006 409.29585676 -165.25 393.625 C-165.82387451 393.19590332 -166.39774902 392.76680664 -166.98901367 392.32470703 C-168.36516173 391.26548107 -169.68837653 390.13815069 -171 389 C-171 388.34 -171 387.68 -171 387 C-171.84884766 386.64808594 -171.84884766 386.64808594 -172.71484375 386.2890625 C-187.30991285 378.0559466 -197.44978232 356.69635703 -204 342 C-204.31453125 341.30712891 -204.6290625 340.61425781 -204.953125 339.90039062 C-210.0123035 328.56907486 -212.75963132 317.25166205 -214.54899597 304.98925781 C-214.84435427 303.03162098 -215.16419663 301.07748524 -215.51112366 299.12832642 C-217.28792545 288.45519636 -217.25596008 277.95559147 -217.1953125 267.1640625 C-217.19157366 265.18867131 -217.18873082 263.21327824 -217.18673706 261.23788452 C-217.17916908 256.08576162 -217.15958083 250.93375485 -217.1373291 245.78167725 C-217.11672186 240.50550913 -217.1077038 235.22932192 -217.09765625 229.953125 C-217.07632725 219.63536617 -217.0422758 209.31769281 -217 199 C-219.40723165 199.30791307 -221.81393369 199.61927085 -224.22045898 199.93261719 C-225.23738956 200.06215286 -225.23738956 200.06215286 -226.2748642 200.19430542 C-241.94793423 202.24730929 -259.16751656 208.41963121 -271 219 C-271 214.86084134 -268.77573997 213.21043389 -266.0625 210.375 C-265.5581543 209.84084473 -265.05380859 209.30668945 -264.53417969 208.75634766 C-263.50619726 207.67154371 -262.47479155 206.5899732 -261.43994141 205.51171875 C-260.20408432 204.2142574 -258.99565051 202.89077154 -257.79296875 201.5625 C-249.22135437 192.38448078 -238.42739143 186.02501661 -227.3125 180.375 C-226.6414624 180.03202881 -225.9704248 179.68905762 -225.27905273 179.33569336 C-221.86129016 177.66361607 -219.88321775 177 -216 177 C-216.00666183 176.37598297 -216.01332367 175.75196594 -216.02018738 175.10903931 C-216.08737576 168.52098834 -216.13214073 161.93303709 -216.16479492 155.34472656 C-216.17973518 152.8970951 -216.20009475 150.4494897 -216.22631836 148.00195312 C-216.37595841 133.65998145 -216.03978736 120.04126711 -213 106 C-212.69579422 104.51939071 -212.39250019 103.03859383 -212.09008789 101.55761719 C-206.15461428 73.01333104 -192.30633417 45.19662927 -171 25 C-170.34 25 -169.68 25 -169 25 C-169 24.34 -169 23.68 -169 23 C-166.99759247 21.21974407 -164.99392165 19.56972879 -162.875 17.9375 C-162.24118408 17.44725342 -161.60736816 16.95700684 -160.9543457 16.4519043 C-116.48444465 -17.49042834 -50.55152489 -26.1097343 0 0 Z " fill="#FCFDFD" transform="translate(358,80)"/>
<path d="M0 0 C0.33 0 0.66 0 1 0 C1 11.22 1 22.44 1 34 C4.63 34.33 8.26 34.66 12 35 C15.51970796 35.57794021 19.00366048 36.18548479 22.5 36.875 C23.41998779 37.05426025 24.33997559 37.23352051 25.2878418 37.41821289 C31.61689866 38.67392918 37.83167433 40.09520679 44 42 C45.19238281 42.35835938 46.38476562 42.71671875 47.61328125 43.0859375 C62.88932903 47.72506383 77.68026812 52.90846788 92 60 C93.18078125 60.58265625 94.3615625 61.1653125 95.578125 61.765625 C101.72270913 64.81875347 107.84247773 67.91877333 113.94921875 71.046875 C128.36853158 78.39398287 142.91289919 85.13309903 158 91 C158.87301758 91.34192383 159.74603516 91.68384766 160.64550781 92.03613281 C167.92429481 94.79320889 175.32224352 96.76763007 182.875 98.625 C184.05191406 98.9240625 185.22882813 99.223125 186.44140625 99.53125 C199.68623989 102.82424494 212.36267948 104.39128642 226 104.3125 C226.72398987 104.30934784 227.44797974 104.30619568 228.19390869 104.302948 C259.64187577 104.10284893 290.74969642 96.20173436 316.99609375 78.25 C319 77 319 77 321 77 C321 76.34 321 75.68 321 75 C322.98 74.34 324.96 73.68 327 73 C327.63083135 90.31281586 323.67668985 106.8479067 313 121 C312.34 121 311.68 121 311 121 C310.62681641 121.84304688 310.62681641 121.84304688 310.24609375 122.703125 C300.7230918 140.25649537 279.27861783 149.41664732 261.109375 154.9921875 C250.43821247 157.76574957 239.91495837 158.36964654 228.9375 158.3125 C228.21044861 158.31067719 227.48339722 158.30885437 226.73431396 158.30697632 C215.2475128 158.25856669 204.21964845 157.56797786 193 155 C191.92661377 154.77449463 191.92661377 154.77449463 190.83154297 154.54443359 C154.30969518 146.77537253 120.9313419 127.24745873 89.4375 107.9375 C64.68827646 92.80965805 38.93281592 79.23695876 11 71 C7.7 70.01 4.4 69.02 1 68 C1 94.4 1 120.8 1 148 C0.67 148 0.34 148 0 148 C0 99.16 0 50.32 0 0 Z " fill="#51B3E4" transform="translate(208,216)"/>
<path d="M0 0 C0.33 0 0.66 0 1 0 C2.60744353 6.84261982 3.32698188 13.28953439 3.25 20.3125 C3.24178223 21.23329346 3.23356445 22.15408691 3.22509766 23.1027832 C2.83127906 47.21252716 -5.6446893 70.15299973 -22 88 C-22.83273437 88.92554688 -23.66546875 89.85109375 -24.5234375 90.8046875 C-37.11282228 104.13245262 -54.18429415 113.65220225 -72 118 C-72.70060547 118.17756836 -73.40121094 118.35513672 -74.12304688 118.53808594 C-84.03590983 120.6882115 -94.15674364 120.44352856 -104.25 120.4375 C-105.25097717 120.43723816 -106.25195435 120.43697632 -107.28326416 120.43670654 C-125.00555902 120.38200266 -141.67586031 118.97264815 -159 115 C-159.72475525 114.83502014 -160.4495105 114.67004028 -161.19622803 114.50006104 C-184.37379555 109.18589639 -207.01904218 102.3569993 -229.63095093 95.03947449 C-243.74186928 90.48665176 -258.00822388 86.42070303 -272.3671875 82.7265625 C-275 82 -275 82 -277 81 C-277.02689216 79.52093108 -277.04634621 78.04172517 -277.0625 76.5625 C-277.07410156 75.73878906 -277.08570313 74.91507812 -277.09765625 74.06640625 C-277 72 -277 72 -276 71 C-257.17545333 67.59465105 -237.73608018 67.71569842 -218.6875 67.75 C-217.05533539 67.75143509 -217.05533539 67.75143509 -215.39019775 67.75289917 C-205.41307514 67.77328365 -195.45748134 67.83547214 -185.5 68.49609375 C-172.92134441 69.31343395 -160.30755872 69.26121231 -147.70727539 69.29516602 C-144.78616382 69.30400877 -141.86553049 69.32488578 -138.94458008 69.35668945 C-94.02179115 69.83435317 -58.24706065 59.8441149 -24.5 29.1875 C-23.98308594 28.71916748 -23.46617187 28.25083496 -22.93359375 27.76831055 C-20.59457722 25.61212714 -18.77589879 23.66384818 -17 21 C-16.34 21 -15.68 21 -15 21 C-14.73195557 20.42475586 -14.46391113 19.84951172 -14.18774414 19.25683594 C-12.96620505 16.93578612 -11.58685835 14.97408711 -9.99609375 12.890625 C-9.13274414 11.75947266 -9.13274414 11.75947266 -8.25195312 10.60546875 C-7.65318359 9.82816406 -7.05441406 9.05085937 -6.4375 8.25 C-5.83486328 7.45722656 -5.23222656 6.66445312 -4.61132812 5.84765625 C-1.27748402 1.49981467 -1.27748402 1.49981467 0 0 Z " fill="#FAFBFC" transform="translate(504,152)"/>
<path d="M0 0 C1.32 0.33 2.64 0.66 4 1 C3.67 1.66 3.34 2.32 3 3 C3.77601562 2.50886719 4.55203125 2.01773437 5.3515625 1.51171875 C10.16100255 -0.4810578 14.23344297 -0.33052477 19.375 -0.1875 C20.30183594 -0.17396484 21.22867188 -0.16042969 22.18359375 -0.14648438 C24.45633998 -0.11133881 26.72785847 -0.06214132 29 0 C29 0.33 29 0.66 29 1 C28.1181604 1.18006592 28.1181604 1.18006592 27.21850586 1.36376953 C3.4986302 6.28122011 -17.37371891 14.27621197 -36 30 C-36.51159668 30.42651855 -37.02319336 30.85303711 -37.55029297 31.29248047 C-58.28766221 48.76764383 -73.04425096 73.55293619 -79 100 C-79.16670122 100.73287595 -79.33340244 101.46575191 -79.50515521 102.22083622 C-81.14180242 110.16508497 -81.286749 117.92227865 -81.26742554 126.00706482 C-81.27116855 127.50373422 -81.27577265 129.00040168 -81.28115618 130.49706608 C-81.29332167 134.58379654 -81.29313337 138.67044475 -81.29076743 142.75718915 C-81.29035761 147.17529187 -81.30141431 151.5933688 -81.31088257 156.01145935 C-81.32745936 164.65879439 -81.33299066 173.30610215 -81.33410732 181.95345175 C-81.33505961 188.98868166 -81.33917894 196.02390263 -81.34550858 203.05912971 C-81.36311387 223.03569171 -81.37234885 243.01223226 -81.37084763 262.98880207 C-81.37076772 264.06459455 -81.3706878 265.14038704 -81.37060547 266.2487793 C-81.37052371 267.32589635 -81.37044195 268.4030134 -81.37035771 269.51277036 C-81.36954557 286.95175182 -81.38866693 304.39064674 -81.4168822 321.82960319 C-81.44567096 339.76561097 -81.45941913 357.70157665 -81.45769465 375.63760811 C-81.45703269 385.69520954 -81.46243905 395.75272031 -81.48405075 405.81030083 C-81.50234182 414.37704795 -81.50654544 422.94366335 -81.4930319 431.51042163 C-81.48654129 435.8734671 -81.48624179 440.23626047 -81.5037384 444.59928131 C-81.65615451 485.18567285 -73.7488758 520.18717138 -44.83203125 550.1953125 C-29.63319156 565.24740477 -10.9695168 576.55799052 9.5 582.8125 C10.12704834 583.00755127 10.75409668 583.20260254 11.40014648 583.40356445 C23.47165773 586.84108687 35.98797306 587.29662556 48.45252991 587.25396729 C49.94867731 587.25627826 51.44482356 587.25945901 52.9409675 587.26342177 C57.00744998 587.271691 61.07383734 587.2676808 65.14031994 587.26144934 C69.54323444 587.25689329 73.94613346 587.2639241 78.3490448 587.26940918 C86.95639305 587.27827117 95.56370628 587.27639553 104.17105586 587.2705839 C111.17000875 587.26605509 118.16895187 587.26545976 125.16790581 587.26763153 C126.66581526 587.26809123 126.66581526 587.26809123 128.1939855 587.26856022 C130.22303626 587.26919971 132.25208701 587.26984813 134.28113776 587.2705054 C153.27723788 587.27619926 172.27331866 587.26966549 191.26941561 587.25890467 C207.54786553 587.24996864 223.82628692 587.25152346 240.10473633 587.26074219 C259.03745777 587.27145915 277.97016228 587.27565147 296.90288633 587.26951766 C298.9238942 587.2688806 300.94490208 587.26825186 302.96590996 587.26763153 C303.96012309 587.26732298 304.95433622 587.26701443 305.97867702 587.26669653 C312.96490019 587.26497397 319.95111257 587.26787518 326.93733406 587.27259064 C335.45728408 587.27821527 343.97719727 587.27664978 352.4971431 587.26602915 C356.83914866 587.2607939 361.18109296 587.25867888 365.52309799 587.26532745 C369.50600166 587.27133368 373.48878787 587.26793564 377.47168105 587.25737235 C378.90417638 587.25515799 380.33668185 587.2562298 381.76917053 587.26112393 C412.6762948 587.35853 441.33560278 578.23277848 465.203125 558.375 C467 557 467 557 469.171875 556 C471.35256559 555.07653998 471.35256559 555.07653998 472 552 C473.4609375 550.703125 473.4609375 550.703125 475.375 549.25 C481.76633903 543.83575417 486.29535001 536.86070855 491 530 C491.57878906 529.16597656 492.15757812 528.33195313 492.75390625 527.47265625 C498.02798958 519.29567146 501.38155218 509.99410692 505 501 C505.30472512 500.31816871 505.60945024 499.63633741 505.92340946 498.93384457 C512.65344469 480.59365247 511.58782986 460.29501531 511.53755772 441.06529105 C511.53047658 436.66915801 511.54663002 432.27309503 511.55955505 427.87698364 C511.58105159 419.2956243 511.58110559 410.71439829 511.57292951 402.13302093 C511.56659729 395.15144804 511.56779585 388.16991367 511.57420158 381.18834114 C511.57555407 379.69072288 511.57555407 379.69072288 511.57693387 378.16284971 C511.5787853 376.13381281 511.58064786 374.10477592 511.58252143 372.07573903 C511.59904926 353.10655989 511.59042288 334.13745541 511.57353585 315.16828079 C511.55883672 297.85674338 511.57347927 280.5453795 511.60230602 263.23386442 C511.63177436 245.40258199 511.64265109 227.57137943 511.63312382 209.74007374 C511.63210139 207.71933021 511.63110678 205.69858666 511.6301403 203.67784309 C511.62966391 202.68391575 511.62918752 201.68998841 511.6286967 200.66594205 C511.62654275 193.70193534 511.6362818 186.73800519 511.65091133 179.77401543 C511.66852051 171.27413524 511.66819476 162.77447621 511.64555968 154.27460437 C511.6344961 149.94777017 511.63107345 145.62132437 511.64986038 141.29450798 C511.72085772 123.65531146 511.43975177 106.97723074 506 90 C505.60616741 88.68918187 505.21360728 87.37798051 504.82253361 86.06633663 C495.12113303 54.81314629 471.485513 30.87417828 443.62890625 15.08984375 C429.52410309 7.67055423 414.69339295 3.43739346 399 1 C399 0.67 399 0.34 399 0 C402.31248078 -0.02945031 405.62492711 -0.04694801 408.9375 -0.0625 C409.86369141 -0.07087891 410.78988281 -0.07925781 411.74414062 -0.08789062 C417.58300303 -0.10837786 423.20913053 0.24570213 429 1 C429 1.66 429 2.32 429 3 C429.99 3 430.98 3 432 3 C432 3.66 432 4.32 432 5 C433.65 4.67 435.3 4.34 437 4 C437.33 4.66 437.66 5.32 438 6 C438.66 5.67 439.32 5.34 440 5 C440.33 5.99 440.66 6.98 441 8 C442.5778125 8.433125 442.5778125 8.433125 444.1875 8.875 C448.52601639 10.15521795 450.65310283 12.016896 454 15 C455.65532623 16.01866229 457.32260138 17.01810813 459 18 C460.28101324 18.83882247 461.5514543 19.69394845 462.8125 20.5625 C463.41707031 20.97628906 464.02164063 21.39007812 464.64453125 21.81640625 C465.09183594 22.20699219 465.53914062 22.59757812 466 23 C466 23.66 466 24.32 466 25 C466.66 25.185625 467.32 25.37125 468 25.5625 C476.17709367 29.48069072 483.73993889 37.6816541 489 45 C492.59706307 49.40311337 492.59706307 49.40311337 496.5859375 53.4375 C498.31007082 55.34261969 498.87376661 56.9898 499.625 59.4375 C499.98464844 60.58025391 499.98464844 60.58025391 500.3515625 61.74609375 C500.94866305 63.8215577 501.49314622 65.90086028 502 68 C502.99 68 503.98 68 505 68 C506.90250216 73.58067299 506.90250216 73.58067299 507.44140625 75.8984375 C508.31556712 79.18723854 509.7299532 82.24158141 511.0625 85.3671875 C512.90074058 90.5295798 513.12511663 95.57760272 513.12584114 101.02091408 C513.12729458 101.70705335 513.12874802 102.39319263 513.13024551 103.100124 C513.13389345 105.39812147 513.13042469 107.6960521 513.12698364 109.99404907 C513.12813593 111.65867153 513.12972418 113.32329373 513.13171089 114.9879154 C513.1358893 119.56147798 513.13382021 124.13501973 513.13072467 128.7085824 C513.12846479 133.64111631 513.1319531 138.57364661 513.13470459 143.50617981 C513.13915475 153.16818455 513.13818921 162.83018152 513.13529195 172.49218656 C513.13303523 180.34241106 513.13272656 188.19263339 513.13381577 196.04285812 C513.13404561 197.71761225 513.13404561 197.71761225 513.13428011 199.42619979 C513.13459983 201.69419866 513.13492404 203.96219753 513.1352527 206.2301964 C513.13810522 227.5040658 513.1348239 248.77793089 513.12945233 270.05179958 C513.12498328 288.31708729 513.12576151 306.58236865 513.13037109 324.84765625 C513.13571876 346.0475676 513.13783184 367.24747517 513.13475883 388.4473871 C513.13444027 390.70651587 513.1341259 392.96564464 513.13381577 395.22477341 C513.13366149 396.33637707 513.13350721 397.44798073 513.13334826 398.59326936 C513.13248378 406.4376853 513.13394449 414.28209886 513.13629532 422.12651443 C513.13909559 431.68084586 513.13835017 441.23516906 513.13301457 450.78949954 C513.13038084 455.66688316 513.12936701 460.54425305 513.13266373 465.42163658 C513.13563331 469.88236892 513.13402274 474.34307476 513.12868617 478.80380468 C513.12756485 480.42145136 513.12814691 482.03910025 513.13056196 483.65674551 C513.13358377 485.84811866 513.13050284 488.03939993 513.12584114 490.2307682 C513.12567879 491.45021523 513.12551644 492.66966226 513.12534916 493.92606223 C513 497 513 497 512.42963493 499.23557699 C511.77959779 501.22495245 511.77959779 501.22495245 513 504 C512.0625 506.1875 512.0625 506.1875 511 508 C510.34 508 509.68 508 509 508 C508.40929986 509.94603274 508.40929986 509.94603274 508 512 C508.33 512.33 508.66 512.66 509 513 C507.68 513.66 506.36 514.32 505 515 C505.33 515.99 505.66 516.98 506 518 C504.75 521.625 504.75 521.625 503 525 C502.01 525.33 501.02 525.66 500 526 C500.33 527.32 500.66 528.64 501 530 C500.34 530 499.68 530 499 530 C498.67 531.32 498.34 532.64 498 534 C497.01 534 496.02 534 495 534 C494.34 535.65 493.68 537.3 493 539 C492.34 539 491.68 539 491 539 C490.87625 540.1446875 490.87625 540.1446875 490.75 541.3125 C489.84730645 544.54715191 488.86406539 545.35099265 486 547 C485.34 547 484.68 547 484 547 C483.87625 548.11761719 483.87625 548.11761719 483.75 549.2578125 C482.83153603 552.61594638 481.64818562 553.65898356 479 555.875 C478.19046875 556.555625 477.3809375 557.23625 476.546875 557.9375 C475.70640625 558.618125 474.8659375 559.29875 474 560 C473.20078125 560.66 472.4015625 561.32 471.578125 562 C467.8123929 565.03280438 464.58397416 567.34912819 460 569 C460 569.99 460 570.98 460 572 C457.69 572.66 455.38 573.32 453 574 C453 574.99 453 575.98 453 577 C451.390625 578.38671875 451.390625 578.38671875 449.25 579.6875 C448.55390625 580.12449219 447.8578125 580.56148437 447.140625 581.01171875 C445 582 445 582 441 582 C441 582.66 441 583.32 441 584 C435.7237072 585.36792776 430.47304843 586.5062207 425.1015625 587.4375 C422.80101483 587.86549498 422.80101483 587.86549498 421 590 C418.09702289 590.24839699 418.09702289 590.24839699 414.28831291 590.24609566 C413.58701852 590.24840335 412.88572412 590.25071103 412.16317838 590.25308865 C409.78950911 590.25842488 407.41610571 590.24937482 405.04244995 590.24050903 C403.33305584 590.24138036 401.62366199 590.24313 399.91426957 590.24568737 C395.19850285 590.25017921 390.48282624 590.24213212 385.76707101 590.23213124 C380.68866739 590.22352537 375.6102692 590.22641486 370.53186035 590.22793579 C361.72703718 590.22898646 352.92224356 590.22269087 344.11742783 590.21146011 C331.38701491 590.19523269 318.65661634 590.18999994 305.92619421 590.18748413 C285.27386745 590.18310268 264.62155647 590.16978141 243.96923828 590.15087891 C223.90283284 590.13253172 203.83643167 590.11836954 183.77001953 590.10986328 C182.53392881 590.10933783 181.29783809 590.10881239 180.02429007 590.10827102 C173.82342587 590.10566102 167.62256163 590.10313358 161.42169738 590.10064721 C109.94778735 590.07990072 58.47389444 590.04466299 7 590 C7 589.34 7 588.68 7 588 C3.7 587.34 0.4 586.68 -3 586 C-3 585.34 -3 584.68 -3 584 C-3.66 584 -4.32 584 -5 584 C-5 583.34 -5 582.68 -5 582 C-5.78375 582.20625 -6.5675 582.4125 -7.375 582.625 C-8.674375 582.810625 -8.674375 582.810625 -10 583 C-10.66 582.34 -11.32 581.68 -12 581 C-13.6635479 580.32558869 -15.33066942 579.6599679 -17 579 C-18.67063747 578.00664799 -20.33675599 577.00568242 -22 576 C-23.37299609 575.34991737 -24.74814192 574.70436254 -26.125 574.0625 C-29.2745411 572.51149957 -31.29962995 571.18819384 -33 568 C-33 567.34 -33 566.68 -33 566 C-33.556875 565.731875 -34.11375 565.46375 -34.6875 565.1875 C-39.08138746 562.93117941 -42.67964072 560.5719404 -46.171875 557.05859375 C-47.29142578 555.93614258 -47.29142578 555.93614258 -48.43359375 554.79101562 C-49.19800781 554.01435547 -49.96242187 553.23769531 -50.75 552.4375 C-51.52988281 551.65697266 -52.30976562 550.87644531 -53.11328125 550.07226562 C-58.85942293 544.28115414 -58.85942293 544.28115414 -60 542 C-60.99 541.67 -61.98 541.34 -63 541 C-63.33 538.69 -63.66 536.38 -64 534 C-64.99 533.67 -65.98 533.34 -67 533 C-67 531.68 -67 530.36 -67 529 C-67.66 529 -68.32 529 -69 529 C-69.40992187 528.24074219 -69.81984375 527.48148438 -70.2421875 526.69921875 C-70.78101562 525.70535156 -71.31984375 524.71148438 -71.875 523.6875 C-72.40867187 522.70136719 -72.94234375 521.71523438 -73.4921875 520.69921875 C-75.00722126 517.90413542 -75.00722126 517.90413542 -77 515 C-78.1875 511.4375 -78.1875 511.4375 -79 508 C-78.67 507.34 -78.34 506.68 -78 506 C-78.66 506 -79.32 506 -80 506 C-80.495 504.515 -80.495 504.515 -81 503 C-81.66 503 -82.32 503 -83 503 C-83.02289236 451.10007965 -83.04051146 399.20015981 -83.05106533 347.30023541 C-83.05231603 341.17199938 -83.05361035 335.04376336 -83.05493164 328.91552734 C-83.05519395 327.69551363 -83.05545626 326.47549991 -83.05572652 325.21851608 C-83.06007699 305.46814973 -83.06796113 285.7177863 -83.0771528 265.96742168 C-83.08650663 245.6994615 -83.09205928 225.43150285 -83.09408849 205.1635406 C-83.09546012 192.65867757 -83.09979126 180.15382278 -83.10791647 167.64896229 C-83.11320524 159.07216459 -83.11479943 150.49537113 -83.11350138 141.91857192 C-83.11286134 136.9713787 -83.11383775 132.02419986 -83.11920547 127.0770092 C-83.12408903 122.5428375 -83.12430621 118.00868979 -83.12089889 113.47451696 C-83.12047807 111.83905135 -83.12173184 110.20358421 -83.12488318 108.56812158 C-83.13967068 100.41607446 -83.00940784 92.34710837 -82.2145223 84.22370124 C-81.96799166 82.0405445 -81.96799166 82.0405445 -82 80 C-80.68 80 -79.36 80 -78 80 C-77.73316406 79.30132812 -77.46632813 78.60265625 -77.19140625 77.8828125 C-75.91486507 74.79400138 -74.45584794 71.85200653 -72.9375 68.875 C-71.42716917 65.91342219 -70.05151186 63.15453558 -69 60 C-68.34 60 -67.68 60 -67 60 C-66.67 58.68 -66.34 57.36 -66 56 C-65.34 56 -64.68 56 -64 56 C-63.855625 55.4225 -63.71125 54.845 -63.5625 54.25 C-63.04166667 52.16666667 -62.52083333 50.08333333 -62 48 C-62.66 48 -63.32 48 -64 48 C-64.33 48.99 -64.66 49.98 -65 51 C-64.67 49.35 -64.34 47.7 -64 46 C-62.68 46.66 -61.36 47.32 -60 48 C-59.443125 47.278125 -58.88625 46.55625 -58.3125 45.8125 C-56 43 -56 43 -53.3125 40.4375 C-50.96578842 37.96393915 -50.75213092 37.11597094 -50 34 C-48.06164314 32.79688195 -46.13170341 32.04938878 -44 31.25 C-41.68733786 29.99732752 -41.68733786 29.99732752 -39.9375 26.875 C-38.9784375 25.451875 -38.9784375 25.451875 -38 24 C-37.01 24 -36.02 24 -35 24 C-34.67 21.36 -34.34 18.72 -34 16 C-33.34 16 -32.68 16 -32 16 C-31.34 16.99 -30.68 17.98 -30 19 C-29.01 18.67 -28.02 18.34 -27 18 C-27 17.34 -27 16.68 -27 16 C-25.68 16 -24.36 16 -23 16 C-23 15.34 -23 14.68 -23 14 C-22.01 13.67 -21.02 13.34 -20 13 C-18.79117904 10.99983534 -18.79117904 10.99983534 -18 9 C-18 9.66 -18 10.32 -18 11 C-17.01 11 -16.02 11 -15 11 C-15 10.34 -15 9.68 -15 9 C-13.36503879 6.85708967 -12.39066259 6.08838825 -9.73828125 5.48828125 C-8.93777344 5.43027344 -8.13726562 5.37226562 -7.3125 5.3125 C-6.50425781 5.24675781 -5.69601563 5.18101562 -4.86328125 5.11328125 C-4.24839844 5.07589844 -3.63351563 5.03851562 -3 5 C-3 4.34 -3 3.68 -3 3 C-1.35 3.33 0.3 3.66 2 4 C1.01 2.02 1.01 2.02 0 0 Z M-80 83 C-79 85 -79 85 -79 85 Z " fill="#D9E3F0" transform="translate(83,0)"/>
<path d="M0 0 C0 12.54 0 25.08 0 38 C-35 38 -35 38 -49 31 C-48.99476318 30.25314941 -48.98952637 29.50629883 -48.98413086 28.73681641 C-48.96339599 25.36621943 -48.95035101 21.99563586 -48.9375 18.625 C-48.92912109 17.449375 -48.92074219 16.27375 -48.91210938 15.0625 C-48.90888672 13.94101562 -48.90566406 12.81953125 -48.90234375 11.6640625 C-48.89710693 10.62717285 -48.89187012 9.5902832 -48.88647461 8.52197266 C-48.82859185 6.0040332 -48.82859185 6.0040332 -50 4 C-49.04859131 3.98541748 -48.09718262 3.97083496 -47.11694336 3.95581055 C-43.51015792 3.89684113 -39.90393442 3.81963859 -36.29760742 3.73754883 C-34.75115227 3.70475444 -33.20459044 3.67658917 -31.65795898 3.65356445 C-21.04190655 3.49140831 -10.30137519 0 0 0 Z " fill="#3B90D2" transform="translate(437,268)"/>
<path d="M0 0 C1.32 0.33 2.64 0.66 4 1 C3.67 1.66 3.34 2.32 3 3 C3.77601562 2.50886719 4.55203125 2.01773437 5.3515625 1.51171875 C10.16100255 -0.4810578 14.23344297 -0.33052477 19.375 -0.1875 C20.30183594 -0.17396484 21.22867188 -0.16042969 22.18359375 -0.14648438 C24.45633998 -0.11133881 26.72785847 -0.06214132 29 0 C29 0.33 29 0.66 29 1 C28.1181604 1.18006592 28.1181604 1.18006592 27.21850586 1.36376953 C3.4986302 6.28122011 -17.37371891 14.27621197 -36 30 C-36.51159668 30.42651855 -37.02319336 30.85303711 -37.55029297 31.29248047 C-58.28766221 48.76764383 -73.04425096 73.55293619 -79 100 C-79.24985958 101.1015965 -79.24985958 101.1015965 -79.50476682 102.22544748 C-81.12911308 110.12555736 -81.29094267 117.83610197 -81.2784729 125.87590027 C-81.28348451 127.35795068 -81.28936282 128.83999837 -81.29602563 130.32204229 C-81.31173505 134.36756552 -81.31525129 138.41301913 -81.31667423 142.45856917 C-81.3203842 146.83130637 -81.33554757 151.20400609 -81.34928894 155.57672119 C-81.3715156 163.14380178 -81.38655645 170.71086896 -81.39665604 178.27797508 C-81.41126864 189.21860895 -81.43681268 200.15919605 -81.46498732 211.09980241 C-81.51040846 228.85208568 -81.54704258 246.60437571 -81.578125 264.35668945 C-81.60832972 281.59693588 -81.64268882 298.83716581 -81.68261719 316.07739258 C-81.68507874 317.14086004 -81.68754028 318.2043275 -81.69007643 319.30002125 C-81.7024514 324.63535787 -81.71490786 329.9706943 -81.72740483 335.30603063 C-81.83090256 379.53733074 -81.9201289 423.76865134 -82 468 C-82.33 468 -82.66 468 -83 468 C-83.02289526 420.55887291 -83.04051293 373.1177464 -83.05106533 325.67661487 C-83.05231602 320.07412344 -83.05361034 314.47163203 -83.05493164 308.86914062 C-83.05519395 307.75379843 -83.05545626 306.63845623 -83.05572652 305.48931578 C-83.0600763 287.43641248 -83.06796006 269.38351237 -83.0771528 251.33061096 C-83.08650855 232.8028699 -83.09205969 214.2751305 -83.09408849 195.74738717 C-83.09545972 184.31735509 -83.09978869 172.88733202 -83.10791647 161.45730272 C-83.11320762 153.61637235 -83.1147989 145.77544663 -83.11350138 137.93451461 C-83.11286171 133.41262682 -83.11383352 128.89075477 -83.11920547 124.36886978 C-83.12409426 120.22328618 -83.12430287 116.0777288 -83.12089889 111.93214396 C-83.12047857 110.43799634 -83.12172789 108.94384705 -83.12488318 107.44970271 C-83.14031563 99.68598819 -82.96174701 92.00441769 -82.2145223 84.27041459 C-81.96864433 82.0482325 -81.96864433 82.0482325 -82 80 C-80.68 80 -79.36 80 -78 80 C-77.73316406 79.30132812 -77.46632813 78.60265625 -77.19140625 77.8828125 C-75.91486507 74.79400138 -74.45584794 71.85200653 -72.9375 68.875 C-71.42716917 65.91342219 -70.05151186 63.15453558 -69 60 C-68.34 60 -67.68 60 -67 60 C-66.67 58.68 -66.34 57.36 -66 56 C-65.34 56 -64.68 56 -64 56 C-63.855625 55.4225 -63.71125 54.845 -63.5625 54.25 C-63.04166667 52.16666667 -62.52083333 50.08333333 -62 48 C-62.66 48 -63.32 48 -64 48 C-64.33 48.99 -64.66 49.98 -65 51 C-64.67 49.35 -64.34 47.7 -64 46 C-62.68 46.66 -61.36 47.32 -60 48 C-59.443125 47.278125 -58.88625 46.55625 -58.3125 45.8125 C-56 43 -56 43 -53.3125 40.4375 C-50.96578842 37.96393915 -50.75213092 37.11597094 -50 34 C-48.06164314 32.79688195 -46.13170341 32.04938878 -44 31.25 C-41.68733786 29.99732752 -41.68733786 29.99732752 -39.9375 26.875 C-38.9784375 25.451875 -38.9784375 25.451875 -38 24 C-37.01 24 -36.02 24 -35 24 C-34.67 21.36 -34.34 18.72 -34 16 C-33.34 16 -32.68 16 -32 16 C-31.34 16.99 -30.68 17.98 -30 19 C-29.01 18.67 -28.02 18.34 -27 18 C-27 17.34 -27 16.68 -27 16 C-25.68 16 -24.36 16 -23 16 C-23 15.34 -23 14.68 -23 14 C-22.01 13.67 -21.02 13.34 -20 13 C-18.79117904 10.99983534 -18.79117904 10.99983534 -18 9 C-18 9.66 -18 10.32 -18 11 C-17.01 11 -16.02 11 -15 11 C-15 10.34 -15 9.68 -15 9 C-13.36503879 6.85708967 -12.39066259 6.08838825 -9.73828125 5.48828125 C-8.93777344 5.43027344 -8.13726562 5.37226562 -7.3125 5.3125 C-6.50425781 5.24675781 -5.69601563 5.18101562 -4.86328125 5.11328125 C-4.24839844 5.07589844 -3.63351563 5.03851562 -3 5 C-3 4.34 -3 3.68 -3 3 C-1.35 3.33 0.3 3.66 2 4 C1.01 2.02 1.01 2.02 0 0 Z M-80 83 C-79 85 -79 85 -79 85 Z " fill="#BCC2DD" transform="translate(83,0)"/>
<path d="M0 0 C3.31248078 -0.02945031 6.62492711 -0.04694801 9.9375 -0.0625 C10.86369141 -0.07087891 11.78988281 -0.07925781 12.74414062 -0.08789062 C18.58300303 -0.10837786 24.20913053 0.24570213 30 1 C30 1.66 30 2.32 30 3 C30.99 3 31.98 3 33 3 C33 3.66 33 4.32 33 5 C34.65 4.67 36.3 4.34 38 4 C38.495 4.99 38.495 4.99 39 6 C39.66 5.67 40.32 5.34 41 5 C41.495 6.485 41.495 6.485 42 8 C43.051875 8.28875 44.10375 8.5775 45.1875 8.875 C49.52601639 10.15521795 51.65310283 12.016896 55 15 C56.65532623 16.01866229 58.32260138 17.01810813 60 18 C61.28101324 18.83882247 62.5514543 19.69394845 63.8125 20.5625 C64.41707031 20.97628906 65.02164063 21.39007812 65.64453125 21.81640625 C66.09183594 22.20699219 66.53914062 22.59757812 67 23 C67 23.66 67 24.32 67 25 C67.66 25.185625 68.32 25.37125 69 25.5625 C77.17709367 29.48069072 84.73993889 37.6816541 90 45 C93.59706307 49.40311337 93.59706307 49.40311337 97.5859375 53.4375 C99.31007082 55.34261969 99.87376661 56.9898 100.625 59.4375 C100.86476563 60.19933594 101.10453125 60.96117187 101.3515625 61.74609375 C101.94866305 63.8215577 102.49314622 65.90086028 103 68 C103.99 68 104.98 68 106 68 C107.90250216 73.58067299 107.90250216 73.58067299 108.44140625 75.8984375 C109.31556712 79.18723854 110.7299532 82.24158141 112.0625 85.3671875 C113.81311146 90.283488 114.12333271 95.08679337 114.09765625 100.2734375 C114.09282227 102.00400391 114.09282227 102.00400391 114.08789062 103.76953125 C114.07532227 105.55423828 114.07532227 105.55423828 114.0625 107.375 C114.05798828 108.58800781 114.05347656 109.80101563 114.04882812 111.05078125 C114.03708354 114.03390507 114.0206584 117.01692679 114 120 C113.67 120 113.34 120 113 120 C112.92523437 119.16082031 112.85046875 118.32164063 112.7734375 117.45703125 C111.89805281 109.44983602 110.33461545 101.87517456 108.125 94.125 C107.88056152 93.2585083 107.63612305 92.3920166 107.38427734 91.49926758 C105.69675383 85.7639903 103.55378234 80.40091312 101 75 C100.45859375 73.82695313 99.9171875 72.65390625 99.359375 71.4453125 C95.60132718 63.6920585 91.3211584 56.79582051 86 50 C85.39671875 49.18144531 84.7934375 48.36289062 84.171875 47.51953125 C63.96995221 20.82413327 32.45778398 6.04112721 0 1 C0 0.67 0 0.34 0 0 Z " fill="#EAEDF2" transform="translate(482,0)"/>
<path d="M0 0 C0 36.63 0 73.26 0 111 C-0.33 111 -0.66 111 -1 111 C-1 81.63 -1 52.26 -1 22 C-20.03600829 24.53813444 -40.22757453 28.79079416 -55 42 C-55 37.86084134 -52.77573997 36.21043389 -50.0625 33.375 C-49.30598145 32.57376709 -49.30598145 32.57376709 -48.53417969 31.75634766 C-47.50619726 30.67154371 -46.47479155 29.5899732 -45.43994141 28.51171875 C-44.20408432 27.2142574 -42.99565051 25.89077154 -41.79296875 24.5625 C-33.22135437 15.38448078 -22.42739143 9.02501661 -11.3125 3.375 C-10.6414624 3.03202881 -9.9704248 2.68905762 -9.27905273 2.33569336 C-5.86129016 0.66361607 -3.88321775 0 0 0 Z " fill="#9BCBEA" transform="translate(142,257)"/>
<path d="M0 0 C2.64 0 5.28 0 8 0 C4.83911954 2.10725364 2.61435143 2.72545754 -1.0625 3.5625 C-2.12597656 3.81128906 -3.18945312 4.06007813 -4.28515625 4.31640625 C-13.81351133 6.06978389 -23.28065675 6.14126694 -32.94546509 6.12025452 C-34.44727356 6.12069121 -35.94908195 6.12156791 -37.45088995 6.12284368 C-41.55567602 6.12506944 -45.66043577 6.12109375 -49.7652185 6.11606562 C-54.1999853 6.11173364 -58.63475071 6.11320949 -63.06951904 6.1139679 C-70.7457578 6.11449139 -78.42198803 6.11136281 -86.09822464 6.10573006 C-97.19667568 6.09759143 -108.29512261 6.09499741 -119.39357631 6.09374207 C-137.4015467 6.09155526 -155.40951254 6.08490524 -173.41748047 6.07543945 C-190.90706357 6.06625573 -208.39664544 6.05917959 -225.88623047 6.05493164 C-226.96489563 6.05466892 -228.0435608 6.05440619 -229.15491278 6.05413551 C-234.56644023 6.05283044 -239.97796768 6.05156674 -245.38949513 6.05032361 C-290.25966657 6.03996256 -335.12983305 6.02235434 -380 6 C-376.48687054 3.6579137 -375.08000983 3.74758773 -370.92327881 3.74108028 C-369.00471006 3.73080709 -369.00471006 3.73080709 -367.04738235 3.72032636 C-365.61980407 3.72279433 -364.19222609 3.72544419 -362.76464844 3.72825623 C-361.25451775 3.72397193 -359.74438934 3.71880962 -358.23426437 3.71284157 C-354.07384054 3.69893736 -349.91348968 3.69748606 -345.75304604 3.69798481 C-341.27036537 3.69635137 -336.78771711 3.6832323 -332.30505371 3.67144775 C-324.53430299 3.65255769 -316.76356803 3.6408638 -308.99279785 3.63390923 C-297.75422016 3.62375392 -286.51569022 3.60170063 -275.27713728 3.57652331 C-257.04023695 3.53589988 -238.80333206 3.50344864 -220.56640625 3.47680664 C-219.47432468 3.47520934 -218.38224311 3.47361204 -217.25706816 3.47196633 C-216.16360343 3.47036743 -215.07013869 3.46876853 -213.94353867 3.46712118 C-198.44021984 3.44443306 -182.93690573 3.41980187 -167.43359375 3.39282227 C-165.79745975 3.38997805 -165.79745975 3.38997805 -164.12827253 3.38707637 C-145.96094678 3.35533119 -127.79363017 3.31958283 -109.62631607 3.28178078 C-98.41179965 3.25870637 -87.1972895 3.23976459 -75.98275757 3.22611404 C-68.3031053 3.21660609 -60.62346351 3.20377673 -52.94382095 3.18830519 C-48.50809318 3.1795155 -44.07237842 3.17242769 -39.63664246 3.16966438 C-35.58046226 3.16712257 -31.52431634 3.16008237 -27.46814966 3.14939214 C-25.99646207 3.14633908 -24.5247698 3.14499468 -23.05307913 3.14548045 C-21.06095557 3.14590703 -19.06883384 3.139684 -17.07672119 3.13307858 C-15.96766544 3.13150468 -14.8586097 3.12993078 -13.7159462 3.12830919 C-10.90344865 3.11843113 -10.90344865 3.11843113 -8 2 C-6.60560336 1.93334624 -5.20830125 1.91461801 -3.8125 1.9375 C-1.9253125 1.9684375 -1.9253125 1.9684375 0 2 C0 1.34 0 0.68 0 0 Z " fill="#2C499B" transform="translate(496,582)"/>
<path d="M0 0 C1.50286476 -0.00174975 3.00572831 -0.00526203 4.50858545 -0.01035666 C8.58856502 -0.01920141 12.66811586 -0.00344003 16.74804091 0.01675558 C21.16634088 0.0341698 25.58462028 0.02817409 30.00294495 0.02514648 C37.64148094 0.02305788 45.27987935 0.03551533 52.91838074 0.05809784 C63.96209388 0.09072614 75.00574108 0.10103589 86.04949719 0.10604981 C103.97098334 0.11478554 121.89239631 0.14135422 139.81384277 0.17926025 C157.21390418 0.21602503 174.61394564 0.24431489 192.01403809 0.2612915 C193.08813991 0.2623424 194.16224174 0.26339329 195.26889211 0.26447603 C200.65781156 0.26969651 206.04673114 0.27475126 211.43565083 0.27972364 C256.08080844 0.32113202 300.72588627 0.39153334 345.37097168 0.48101807 C345.37097168 0.81101807 345.37097168 1.14101807 345.37097168 1.48101807 C306.43228322 1.60918098 267.49359252 1.73664505 228.5548988 1.86320034 C223.93483323 1.87821667 219.31476768 1.89323867 214.69470215 1.90826416 C213.77511337 1.91125477 212.85552459 1.91424539 211.90806949 1.91732663 C197.11057901 1.96546329 182.31309005 2.01405584 167.51560163 2.06282347 C152.27832283 2.11303011 137.04104244 2.16273154 121.80376053 2.21198511 C113.26787452 2.23959077 104.73198934 2.26741292 96.19610596 2.29582214 C88.92593845 2.32001754 81.65576966 2.34376933 74.3855989 2.36696658 C70.57108055 2.37914822 66.75656311 2.39152832 62.94204712 2.40442944 C49.09815111 2.45110351 35.25450841 2.49457457 21.41052246 2.45928955 C20.45274808 2.45725446 19.4949737 2.45521937 18.50817585 2.45312262 C14.30277461 2.44377503 10.09753075 2.42989081 5.89219666 2.4043045 C-3.4019846 2.36441139 -12.50948261 2.56063879 -21.62902832 4.48101807 C-24.96236165 5.14768473 -28.29569499 5.8143514 -31.62902832 6.48101807 C-31.62902832 5.82101807 -31.62902832 5.16101807 -31.62902832 4.48101807 C-20.95098067 1.37558268 -11.18332538 -0.09882348 0 0 Z " fill="#12227A" transform="translate(127.6290283203125,-0.48101806640625)"/>
<path d="M0 0 C0.66 0.33 1.32 0.66 2 1 C0.7061203 4.58015255 -0.83747852 7.34270408 -3.125 10.375 C-16.67603229 29.41969403 -23.3548062 50.95276688 -26 74 C-26.33 74 -26.66 74 -27 74 C-27.02953391 70.08334973 -27.04697503 66.16672887 -27.0625 62.25 C-27.07087891 61.15816406 -27.07925781 60.06632812 -27.08789062 58.94140625 C-27.10734327 52.36641393 -26.83848859 45.90084237 -26.21655273 39.35449219 C-25.96947076 37.06213931 -25.96947076 37.06213931 -26 35 C-24.68 35 -23.36 35 -22 35 C-21.73316406 34.30132812 -21.46632813 33.60265625 -21.19140625 32.8828125 C-19.91486507 29.79400138 -18.45584794 26.85200653 -16.9375 23.875 C-15.42716917 20.91342219 -14.05151186 18.15453558 -13 15 C-12.34 15 -11.68 15 -11 15 C-10.67 13.68 -10.34 12.36 -10 11 C-9.34 11 -8.68 11 -8 11 C-7.90847656 10.41734375 -7.81695313 9.8346875 -7.72265625 9.234375 C-6.82798931 6.46816153 -5.53835231 5.23626036 -3.4375 3.25 C-2.47650391 2.32960937 -2.47650391 2.32960937 -1.49609375 1.390625 C-1.00238281 0.93171875 -0.50867188 0.4728125 0 0 Z M-24 38 C-23 40 -23 40 -23 40 Z " fill="#F3F3F7" transform="translate(27,45)"/>
<path d="M0 0 C2.64 0 5.28 0 8 0 C4.83911954 2.10725364 2.61435143 2.72545754 -1.0625 3.5625 C-2.12597656 3.81128906 -3.18945312 4.06007813 -4.28515625 4.31640625 C-13.01053203 5.92202219 -21.66189913 6.14840925 -30.515625 6.1328125 C-31.73352722 6.13413177 -32.95142944 6.13545105 -34.20623779 6.1368103 C-37.52890278 6.13840299 -40.85147951 6.13502681 -44.1741333 6.12857056 C-46.25752909 6.12498705 -48.34091791 6.12337688 -50.42431641 6.12231445 C-84.28677226 6.10099918 -118.14315336 5.57721079 -152 5 C-152 4.67 -152 4.34 -152 4 C-151.27608912 3.99576806 -150.55217825 3.99153612 -149.80633068 3.98717594 C-132.20521139 3.88394446 -114.60413372 3.775318 -97.00308514 3.66066074 C-88.49140997 3.60534433 -79.9797306 3.55186491 -71.46801758 3.50268555 C-64.05062309 3.45982435 -56.63325927 3.41354145 -49.21591216 3.36312145 C-45.28722302 3.33653613 -41.35853991 3.31168342 -37.42981529 3.29092598 C-33.73381559 3.27134414 -30.03787418 3.2471957 -26.34192657 3.21950912 C-24.33507248 3.20567478 -22.32818666 3.19671439 -20.32130432 3.18788147 C-19.13078461 3.17809265 -17.94026489 3.16830383 -16.71366882 3.15821838 C-15.67665172 3.15176583 -14.63963461 3.14531328 -13.57119274 3.1386652 C-10.88085055 3.10732816 -10.88085055 3.10732816 -8 2 C-6.60560336 1.93334624 -5.20830125 1.91461801 -3.8125 1.9375 C-1.9253125 1.9684375 -1.9253125 1.9684375 0 2 C0 1.34 0 0.68 0 0 Z " fill="#3758B4" transform="translate(496,582)"/>
<path d="M0 0 C0 0.66 0 1.32 0 2 C0.66 2 1.32 2 2 2 C2 2.66 2 3.32 2 4 C4.31 4 6.62 4 9 4 C9 4.99 9 5.98 9 7 C8.410979 7.235979 7.82195801 7.47195801 7.21508789 7.71508789 C4.49134251 8.81616509 1.77712825 9.93914277 -0.9375 11.0625 C-1.86369141 11.43310547 -2.78988281 11.80371094 -3.74414062 12.18554688 C-10.32492433 14.9333127 -15.59467433 18.3548113 -21 23 C-21 18.83893857 -18.72711196 17.16306514 -16 14.3125 C-15.50250244 13.78301758 -15.00500488 13.25353516 -14.49243164 12.70800781 C-13.00346767 11.13030398 -11.50328793 9.56404729 -10 8 C-8.79150391 6.72962891 -8.79150391 6.72962891 -7.55859375 5.43359375 C-2.28052326 0 -2.28052326 0 0 0 Z " fill="#C3E4F8" transform="translate(108,276)"/>
<path d="M0 0 C1.32 0.33 2.64 0.66 4 1 C3.67 1.66 3.34 2.32 3 3 C3.77601562 2.50886719 4.55203125 2.01773437 5.3515625 1.51171875 C10.16100255 -0.4810578 14.23344297 -0.33052477 19.375 -0.1875 C20.30183594 -0.17396484 21.22867188 -0.16042969 22.18359375 -0.14648438 C24.45633998 -0.11133881 26.72785847 -0.06214132 29 0 C29 0.33 29 0.66 29 1 C28.41210693 1.12004395 27.82421387 1.24008789 27.21850586 1.36376953 C14.23694369 4.05502269 1.91978939 7.04010531 -10 13 C-11.99960012 13.039992 -14.00047242 13.04346799 -16 13 C-15.43258982 9.70902098 -14.6101795 8.09746567 -12 6 C-9.73828125 5.48828125 -9.73828125 5.48828125 -7.3125 5.3125 C-6.50425781 5.24675781 -5.69601563 5.18101562 -4.86328125 5.11328125 C-3.94095703 5.05720703 -3.94095703 5.05720703 -3 5 C-3 4.34 -3 3.68 -3 3 C-1.35 3.33 0.3 3.66 2 4 C1.34 2.68 0.68 1.36 0 0 Z " fill="#E1E3E7" transform="translate(83,0)"/>
<path d="M0 0 C2.03978922 0.00748012 4.07958573 0.01316465 6.11938477 0.01715088 C11.43274527 0.03226793 16.74565348 0.07142609 22.05883789 0.1159668 C27.50270473 0.15722369 32.94664617 0.17522622 38.390625 0.1953125 C49.0314464 0.23793673 59.67193528 0.30601467 70.3125 0.390625 C70.3125 0.720625 70.3125 1.050625 70.3125 1.390625 C65.08516789 2.12208766 60.07612603 2.51020489 54.78588867 2.48828125 C53.72799385 2.48609085 53.72799385 2.48609085 52.64872742 2.4838562 C51.1319374 2.4800795 49.61515166 2.47399455 48.09837914 2.46578979 C45.68775423 2.45289654 43.27718514 2.44647732 40.86653137 2.44165039 C34.87935498 2.42835778 28.89223191 2.40418914 22.90509033 2.38024902 C17.83876648 2.36039937 12.77246291 2.34480733 7.70611 2.33468628 C5.34937975 2.32827838 2.99273499 2.31577084 0.6360321 2.30297852 C-8.91219046 2.26982896 -18.30982923 2.41824679 -27.6875 4.390625 C-31.02083333 5.05729167 -34.35416667 5.72395833 -37.6875 6.390625 C-37.6875 5.730625 -37.6875 5.070625 -37.6875 4.390625 C-25.01308174 0.40309454 -13.21930518 -0.14433745 0 0 Z " fill="#141C70" transform="translate(133.6875,-0.390625)"/>
<path d="M0 0 C0.66 0.99 1.32 1.98 2 3 C1.34 3.5775 0.68 4.155 0 4.75 C-2.44290923 6.99653977 -2.44290923 6.99653977 -2 11 C-4.1875 12.5 -4.1875 12.5 -7 14 C-9.85125311 16.08628276 -11.95794435 17.94557504 -14.125 20.75 C-14.74375 21.4925 -15.3625 22.235 -16 23 C-16.99 23 -17.98 23 -19 23 C-19.07089844 23.60328125 -19.14179688 24.2065625 -19.21484375 24.828125 C-20.29615924 27.81922654 -21.76938457 28.33377246 -24.5625 29.75 C-25.38878906 30.17796875 -26.21507812 30.6059375 -27.06640625 31.046875 C-27.70449219 31.36140625 -28.34257812 31.6759375 -29 32 C-28.67 32.99 -28.34 33.98 -28 35 C-29.32 35 -30.64 35 -32 35 C-32 35.66 -32 36.32 -32 37 C-35.82320557 38.42258812 -38.91281305 39.24042276 -43 39 C-39.40189293 36.04037404 -35.68411931 33.4014391 -31.8125 30.8125 C-25.74270149 26.67196889 -20.3014018 22.09818139 -15 17 C-14.2059375 16.24589844 -13.411875 15.49179687 -12.59375 14.71484375 C-7.87951746 10.13418113 -3.75134822 5.39899921 0 0 Z " fill="#395AB0" transform="translate(410,449)"/>
<path d="M0 0 C0.33 0 0.66 0 1 0 C1.08226668 3.04386724 0.97608217 5.07175348 0 8 C-1.33333333 9.33333333 -2.66666667 10.66666667 -4 12 C-5.01187895 13.65948148 -6.0126546 15.32580562 -7 17 C-8 18 -9 19 -10 20 C-10.433125 20.763125 -10.86625 21.52625 -11.3125 22.3125 C-14.58394571 27.5225802 -18.67299849 30.97656671 -24 34 C-24.495 34.495 -24.99 34.99 -25.5 35.5 C-27.4500727 37.4500727 -29.61719491 38.6146482 -32 40 C-35.68014326 42.26734438 -35.68014326 42.26734438 -39 45 C-40.99958364 45.04080783 -43.00045254 45.04254356 -45 45 C-45.33 45.99 -45.66 46.98 -46 48 C-47.32 47.34 -48.64 46.68 -50 46 C-48.67548828 45.36384766 -48.67548828 45.36384766 -47.32421875 44.71484375 C-32.64507914 37.58086413 -19.36468967 29.75438795 -10 16 C-9.34 16 -8.68 16 -8 16 C-7.73445312 15.29488281 -7.46890625 14.58976562 -7.1953125 13.86328125 C-5.93501033 10.84432214 -4.46042006 8.04814924 -2.875 5.1875 C-2.33617187 4.21167969 -1.79734375 3.23585938 -1.2421875 2.23046875 C-0.83226562 1.49441406 -0.42234375 0.75835937 0 0 Z " fill="#2462B8" transform="translate(529,321)"/>
<path d="M0 0 C1.99954746 -0.04254356 4.00041636 -0.04080783 6 0 C6.33 0.33 6.66 0.66 7 1 C6.50564993 6.54770634 5.42039723 11.79669821 4.0625 17.1875 C2.29347967 24.42272918 0.97665791 31.6108119 0 39 C-0.33 39 -0.66 39 -1 39 C-1.02953391 35.08334973 -1.04697503 31.16672887 -1.0625 27.25 C-1.07087891 26.15816406 -1.07925781 25.06632812 -1.08789062 23.94140625 C-1.10734327 17.36641393 -0.83848859 10.90084237 -0.21655273 4.35449219 C0.03052924 2.06213931 0.03052924 2.06213931 0 0 Z M2 3 C3 5 3 5 3 5 Z " fill="#E1E2E6" transform="translate(1,80)"/>
<path d="M0 0 C-4.18007322 2.89389685 -8.45044013 5.38408332 -12.94921875 7.75390625 C-14.97481065 8.98469447 -16.36587497 10.3014306 -18 12 C-20.5 13.5 -20.5 13.5 -23 15 C-23.556875 15.556875 -24.11375 16.11375 -24.6875 16.6875 C-25.120625 17.120625 -25.55375 17.55375 -26 18 C-26.66 18 -27.32 18 -28 18 C-28.33 18.99 -28.66 19.98 -29 21 C-30.63002752 22.72680096 -32.28413284 24.36259739 -34 26 C-35.18628296 27.18089841 -36.36971182 28.36466855 -37.55078125 29.55078125 C-41.03385417 33.03385417 -44.51692708 36.51692708 -48 40 C-48 35.8703076 -45.83143423 33.9787786 -43.25 31 C-42.5072583 30.13713379 -42.5072583 30.13713379 -41.74951172 29.25683594 C-34.19402155 20.64030144 -11.91723725 -3.97241242 0 0 Z " fill="#282A66" transform="translate(74,14)"/>
<path d="M0 0 C0.33 0 0.66 0 1 0 C1.04646039 13.61342035 1.08193868 27.22682166 1.10362434 40.84030533 C1.11403543 47.1624457 1.12814561 53.4845316 1.15087891 59.80664062 C1.17270286 65.91449261 1.18458873 72.02229237 1.18975449 78.13018036 C1.19343314 80.45361909 1.20061639 82.77705516 1.21146011 85.1004715 C1.22610205 88.36945136 1.22797266 91.63821888 1.22705078 94.90722656 C1.23424133 95.85526154 1.24143188 96.80329651 1.24884033 97.78005981 C1.22796443 104.67759446 0.30073923 111.23153045 -1 118 C-1.33 118 -1.66 118 -2 118 C-2 113.38 -2 108.76 -2 104 C-1.34 104 -0.68 104 0 104 C0 69.68 0 35.36 0 0 Z " fill="#2B51AF" transform="translate(594,368)"/>
<path d="M0 0 C0.66 0 1.32 0 2 0 C1.62894756 5.55299169 0.85446491 10.83418749 -0.4375 16.25 C-5.25627715 38.34585618 -4.56937427 61.49192823 -5 84 C-5.33 84 -5.66 84 -6 84 C-6.07665606 76.54767518 -6.12885207 69.09545368 -6.16479492 61.64282227 C-6.1797939 59.11251018 -6.20019973 56.58222369 -6.22631836 54.05200195 C-6.2630947 50.39528038 -6.27981593 46.73890533 -6.29296875 43.08203125 C-6.30845261 41.96794388 -6.32393646 40.85385651 -6.33988953 39.70600891 C-6.3413419 32.78272674 -5.45593276 26.58630905 -3.70698547 19.88432312 C-2.73907078 15.93547432 -2.39120506 12.04245224 -2 8 C-1.67 7.01 -1.34 6.02 -1 5 C-0.65179959 3.33637583 -0.31595508 1.67004829 0 0 Z " fill="#1B2665" transform="translate(146,172)"/>
<path d="M0 0 C0.33 0 0.66 0 1 0 C1.18175781 1.24394531 1.36351563 2.48789062 1.55078125 3.76953125 C3.13188635 14.64875576 3.13188635 14.64875576 5.75 25.3125 C6.92121497 29.2084586 7.18939036 31.99932332 6 36 C4.02 35.67 2.04 35.34 0 35 C0 23.45 0 11.9 0 0 Z " fill="#DFE2E5" transform="translate(0,468)"/>
<path d="M0 0 C-2.48262768 2.48262768 -4.23022263 2.74173737 -7.625 3.5625 C-8.62789063 3.81128906 -9.63078125 4.06007813 -10.6640625 4.31640625 C-17.06309946 5.62768432 -23.22750248 6.12713278 -29.75390625 6.1328125 C-30.81072853 6.13424759 -30.81072853 6.13424759 -31.88890076 6.13571167 C-33.3653065 6.13638663 -34.84171534 6.13458059 -36.31811523 6.13037109 C-38.56045263 6.1250049 -40.80259051 6.13034361 -43.04492188 6.13671875 C-44.48958377 6.136058 -45.93424554 6.13477691 -47.37890625 6.1328125 C-48.6738501 6.13168457 -49.96879395 6.13055664 -51.30297852 6.12939453 C-54.96734544 6.0011429 -58.38730018 5.58748304 -62 5 C-62 4.67 -62 4.34 -62 4 C-46.49 4 -30.98 4 -15 4 C-15 3.34 -15 2.68 -15 2 C-9.75614911 0.2520497 -5.52677733 -0.19392201 0 0 Z " fill="#3E9ADC" transform="translate(475,368)"/>
<path d="M0 0 C2.64 0 5.28 0 8 0 C-7.39243399 10.26162266 -34.52334995 5.96490778 -52 5.5625 C-54.52863309 5.5091581 -57.05727897 5.456419 -59.5859375 5.40429688 C-65.72412306 5.27647793 -71.8621091 5.14122897 -78 5 C-78 4.67 -78 4.34 -78 4 C-77.16728073 3.98969254 -76.33456146 3.97938507 -75.47660828 3.96876526 C-67.63376791 3.870838 -59.79100373 3.7683303 -51.94829082 3.66066074 C-47.91615716 3.60546719 -43.88401619 3.55205288 -39.85180664 3.50268555 C-35.96141552 3.45498938 -32.07111231 3.40264465 -28.18082619 3.34705925 C-26.69567869 3.3266595 -25.21050711 3.30794249 -23.725317 3.29092598 C-21.64711162 3.26682921 -19.56907192 3.23678204 -17.4909668 3.20532227 C-16.30738083 3.18977798 -15.12379486 3.1742337 -13.90434265 3.15821838 C-10.93363184 3.12463014 -10.93363184 3.12463014 -8 2 C-6.60560336 1.93334624 -5.20830125 1.91461801 -3.8125 1.9375 C-1.9253125 1.9684375 -1.9253125 1.9684375 0 2 C0 1.34 0 0.68 0 0 Z " fill="#3F65C2" transform="translate(496,582)"/>
<path d="M0 0 C0.66 0.99 1.32 1.98 2 3 C1.34 3.5775 0.68 4.155 0 4.75 C-2.44290923 6.99653977 -2.44290923 6.99653977 -2 11 C-4.1875 12.5 -4.1875 12.5 -7 14 C-9.85658147 16.17644303 -12.52584479 18.39562609 -15 21 C-15.99 20.67 -16.98 20.34 -18 20 C-17.20335937 19.2265625 -16.40671875 18.453125 -15.5859375 17.65625 C-9.87922354 12.06460526 -4.56536062 6.59440979 0 0 Z " fill="#425EB2" transform="translate(410,449)"/>
<path d="M0 0 C0.66 0.33 1.32 0.66 2 1 C1.53102295 1.34780518 1.0620459 1.69561035 0.57885742 2.05395508 C-1.55349886 3.63759169 -3.68301773 5.22500118 -5.8125 6.8125 C-6.55048828 7.35970703 -7.28847656 7.90691406 -8.04882812 8.47070312 C-8.76103516 9.00244141 -9.47324219 9.53417969 -10.20703125 10.08203125 C-11.18893433 10.81256714 -11.18893433 10.81256714 -12.19067383 11.55786133 C-14.03688152 12.9636157 -14.03688152 12.9636157 -15.61206055 14.68237305 C-17 16 -17 16 -19 16 C-19 16.66 -19 17.32 -19 18 C-21.5 19.625 -21.5 19.625 -24 21 C-23.34 18.36 -22.68 15.72 -22 13 C-20.02 13 -18.04 13 -16 13 C-16 12.34 -16 11.68 -16 11 C-15.34 11 -14.68 11 -14 11 C-14 10.34 -14 9.68 -14 9 C-13.360625 8.71125 -12.72125 8.4225 -12.0625 8.125 C-9.84793921 7.17176549 -9.84793921 7.17176549 -9 5 C-8.01 5 -7.02 5 -6 5 C-6 4.34 -6 3.68 -6 3 C-5.34 3 -4.68 3 -4 3 C-3.67 2.34 -3.34 1.68 -3 1 C-2.01 0.67 -1.02 0.34 0 0 Z " fill="#2F3974" transform="translate(208,87)"/>
<path d="M0 0 C0.66 0 1.32 0 2 0 C2.33 0.99 2.66 1.98 3 3 C2.67 3.66 2.34 4.32 2 5 C1.34 5 0.68 5 0 5 C0.061875 5.804375 0.12375 6.60875 0.1875 7.4375 C0.02226223 10.57701754 -0.39494525 12.42776113 -1.4375 15.3125 C-3.08958863 19.89470808 -3.61525605 24.15222626 -4 29 C-4.66 29 -5.32 29 -6 29 C-6.20080438 23.08296418 -5.56004578 17.98000551 -4.125 12.25 C-3.95097656 11.50878906 -3.77695313 10.76757812 -3.59765625 10.00390625 C-2.73713538 6.45346088 -1.85076709 3.1679797 0 0 Z " fill="#2B2C6B" transform="translate(8,85)"/>
<path d="M0 0 C0.99 0.33 1.98 0.66 3 1 C-3.11721559 8.66217789 -10.53503916 16.7538943 -20 20 C-20 19.34 -20 18.68 -20 18 C-19.34 18 -18.68 18 -18 18 C-18 17.34 -18 16.68 -18 16 C-17.34 16 -16.68 16 -16 16 C-16 15.34 -16 14.68 -16 14 C-14.68 14 -13.36 14 -12 14 C-12 13.34 -12 12.68 -12 12 C-11.34 12 -10.68 12 -10 12 C-10 11.34 -10 10.68 -10 10 C-9.21625 9.773125 -8.4325 9.54625 -7.625 9.3125 C-4.33125925 7.66562962 -4.20486745 6.35641647 -3 3 C-2.01 2.67 -1.02 2.34 0 2 C0 1.34 0 0.68 0 0 Z " fill="#3957A7" transform="translate(360,410)"/>
<path d="M0 0 C3.63 0.33 7.26 0.66 11 1 C11 1.33 11 1.66 11 2 C9.329375 2.12375 9.329375 2.12375 7.625 2.25 C4.02904923 2.5697895 4.02904923 2.5697895 2.79931641 4.65332031 C1.79435559 7.60374283 1.67413979 10.18039419 1.5859375 13.296875 C1.54726562 14.50214844 1.50859375 15.70742188 1.46875 16.94921875 C1.4378125 18.20347656 1.406875 19.45773437 1.375 20.75 C1.33632812 22.01972656 1.29765625 23.28945313 1.2578125 24.59765625 C1.16355778 27.7316257 1.07794834 30.86558949 1 34 C0.67 34 0.34 34 0 34 C0 22.78 0 11.56 0 0 Z " fill="#5386B8" transform="translate(209,250)"/>
<path d="M0 0 C0.66 0 1.32 0 2 0 C1.649375 0.78375 1.29875 1.5675 0.9375 2.375 C0.628125 3.24125 0.31875 4.1075 0 5 C0.33 5.66 0.66 6.32 1 7 C0.01 7.33 -0.98 7.66 -2 8 C-3.09834022 9.58807696 -3.09834022 9.58807696 -3.9375 11.5625 C-4.27394531 12.27664062 -4.61039063 12.99078125 -4.95703125 13.7265625 C-5.30121094 14.47679688 -5.64539063 15.22703125 -6 16 C-6.70064666 17.48282312 -7.40865285 18.96219769 -8.125 20.4375 C-8.43695313 21.09621094 -8.74890625 21.75492188 -9.0703125 22.43359375 C-10 24 -10 24 -12 25 C-11.45538754 20.17836434 -10.03848174 16.7287466 -7.6875 12.5 C-7.09324219 11.4171875 -6.49898437 10.334375 -5.88671875 9.21875 C-4.01959826 6.03343471 -2.17739045 2.98100466 0 0 Z " fill="#272964" transform="translate(23,55)"/>
<path d="M0 0 C0.78552246 0.01047363 1.57104492 0.02094727 2.38037109 0.03173828 C3.23115234 0.03818359 4.08193359 0.04462891 4.95849609 0.05126953 C6.29267578 0.07640625 6.29267578 0.07640625 7.65380859 0.10205078 C8.99958984 0.11558594 8.99958984 0.11558594 10.37255859 0.12939453 C12.59157445 0.15300108 14.81005937 0.18592768 17.02880859 0.22705078 C17.02880859 0.55705078 17.02880859 0.88705078 17.02880859 1.22705078 C9.43880859 2.87705078 1.84880859 4.52705078 -5.97119141 6.22705078 C-3.03230325 0.34927446 -3.03230325 0.34927446 0 0 Z " fill="#EDEEF5" transform="translate(94.97119140625,-0.22705078125)"/>
<path d="M0 0 C-2.54650762 2.54650762 -3.77731829 2.33766436 -7.3125 2.5625 C-10.967783 2.80685043 -14.42023932 3.22080919 -18 4 C-21.33333333 4.66666667 -24.66666667 5.33333333 -28 6 C-28 5.34 -28 4.68 -28 4 C-18.52181404 1.30569333 -9.95662322 -0.67886067 0 0 Z " fill="#2C2C6D" transform="translate(124,0)"/>
<path d="M0 0 C0 12.54 0 25.08 0 38 C-0.33 38 -0.66 38 -1 38 C-1 26.78 -1 15.56 -1 4 C-3.31 3.67 -5.62 3.34 -8 3 C-5.35759012 1.23839341 -3.22169486 0 0 0 Z " fill="#4488D7" transform="translate(437,268)"/>
<path d="M0 0 C3.96 0 7.92 0 12 0 C12 0.66 12 1.32 12 2 C16.455 2.99 16.455 2.99 21 4 C21 4.66 21 5.32 21 6 C22.65 6 24.3 6 26 6 C25.67 6.66 25.34 7.32 25 8 C16.45923559 6.32234985 8.27435964 3.65997819 0 1 C0 0.67 0 0.34 0 0 Z " fill="#2E3A7A" transform="translate(325,68)"/>
<path d="M0 0 C2.47539758 8.19751226 -2.9959901 17.47850957 -6 25 C-6.33 25 -6.66 25 -7 25 C-7 22.03 -7 19.06 -7 16 C-6.34 16 -5.68 16 -5 16 C-5 15.34 -5 14.68 -5 14 C-4.34 14 -3.68 14 -3 14 C-3 11.36 -3 8.72 -3 6 C-2.34 6 -1.68 6 -1 6 C-0.67 4.02 -0.34 2.04 0 0 Z " fill="#3F6CCE" transform="translate(591,486)"/>
<path d="M0 0 C0.33 0 0.66 0 1 0 C1.47304385 6.03324781 0.22388855 9.38702721 -2.8125 14.375 C-3.16892578 15.00277344 -3.52535156 15.63054687 -3.89257812 16.27734375 C-6.59208464 20.86402821 -6.59208464 20.86402821 -10 22 C-8.20248446 17.27915654 -6.03862628 12.74793489 -3.875 8.1875 C-3.50246094 7.39923828 -3.12992187 6.61097656 -2.74609375 5.79882812 C-1.83204476 3.86526295 -0.91620158 1.93254612 0 0 Z " fill="#435FB0" transform="translate(427,419)"/>
<path d="M0 0 C1.32 0 2.64 0 4 0 C5.03194763 23.99516389 5.03194763 23.99516389 -1 33 C-2.16807578 29.49577266 -1.74835692 28.48925392 -0.625 25.0625 C1.21832235 19.35164617 2.21581817 14.26294055 2.5625 8.25 C2.60568359 7.55261719 2.64886719 6.85523438 2.69335938 6.13671875 C2.79889596 4.42468078 2.8998991 2.71236439 3 1 C2.01 1.33 1.02 1.66 0 2 C0 1.34 0 0.68 0 0 Z " fill="#2164B6" transform="translate(532,288)"/>
<path d="M0 0 C-1.42582518 3.28085283 -3.16741406 5.35503935 -5.75 7.8125 C-9.41104687 11.37333573 -12.73136193 15.07763431 -16 19 C-16.33 18.34 -16.66 17.68 -17 17 C-4.40740741 0 -4.40740741 0 0 0 Z " fill="#313A79" transform="translate(242,149)"/>
<path d="M0 0 C1.65 0 3.3 0 5 0 C5 0.66 5 1.32 5 2 C6.98 2 8.96 2 11 2 C11 3.32 11 4.64 11 6 C12.32 6 13.64 6 15 6 C15.33 6.99 15.66 7.98 16 9 C10.0942118 7.44584521 5.02261107 4.40465533 0 1 C0 0.67 0 0.34 0 0 Z " fill="#33478F" transform="translate(61,568)"/>
<path d="M0 0 C3.16326376 2.90882733 5.21466613 5.78479699 7.25 9.5625 C8.03117187 10.98755859 8.03117187 10.98755859 8.828125 12.44140625 C10 15 10 15 10 18 C9.34 18 8.68 18 8 18 C8 17.34 8 16.68 8 16 C7.34 16 6.68 16 6 16 C6 14.02 6 12.04 6 10 C5.34 10 4.68 10 4 10 C4 9.34 4 8.68 4 8 C3.34 8 2.68 8 2 8 C2 6.68 2 5.36 2 4 C1.34 4 0.68 4 0 4 C0 2.68 0 1.36 0 0 Z " fill="#2E4082" transform="translate(362,166)"/>
<path d="M0 0 C-1.30890081 3.92670244 -2.75807524 4.20657141 -6.375 6.0625 C-9.37011248 7.61537494 -12.18985066 9.12656711 -15 11 C-15.99 10.67 -16.98 10.34 -18 10 C-4.1369863 0 -4.1369863 0 0 0 Z " fill="#3D4781" transform="translate(261,137)"/>
<path d="M0 0 C1.47668858 0.0133035 2.95331108 0.03716415 4.4296875 0.0703125 C5.18378906 0.07933594 5.93789063 0.08835937 6.71484375 0.09765625 C8.57826004 0.1212438 10.44151343 0.15711531 12.3046875 0.1953125 C12.3046875 0.8553125 12.3046875 1.5153125 12.3046875 2.1953125 C8.48952286 3.49593681 5.02906987 3.08901103 1.0546875 2.7578125 C-0.20859375 2.65597656 -1.471875 2.55414063 -2.7734375 2.44921875 C-4.21976562 2.32353516 -4.21976562 2.32353516 -5.6953125 2.1953125 C-3.6953125 0.1953125 -3.6953125 0.1953125 0 0 Z " fill="#3755A8" transform="translate(411.6953125,385.8046875)"/>
<path d="M0 0 C-3.66961141 2.4464076 -7.17802309 2.96149344 -11.4375 3.6875 C-12.20126953 3.82994141 -12.96503906 3.97238281 -13.75195312 4.11914062 C-14.86280273 4.3134668 -14.86280273 4.3134668 -15.99609375 4.51171875 C-16.66825928 4.62990967 -17.3404248 4.74810059 -18.03295898 4.86987305 C-20.22601082 5.01495144 -21.90704331 4.63457442 -24 4 C-16.5553746 -0.04525307 -8.30433068 -0.3180382 0 0 Z " fill="#242D6B" transform="translate(270,66)"/>
<path d="M0 0 C0.33 0 0.66 0 1 0 C1.33965474 2.18652739 1.67142477 4.37428025 2 6.5625 C2.185625 7.78066406 2.37125 8.99882812 2.5625 10.25390625 C2.98555077 13.87627848 3.07501425 17.35712046 3 21 C2.01 20.67 1.02 20.34 0 20 C0 13.4 0 6.8 0 0 Z " fill="#E2E9F4" transform="translate(0,468)"/>
<path d="M0 0 C0.33 0 0.66 0 1 0 C1.21105492 9.89613084 1.10084738 19.2648233 -1 29 C-1.33 29 -1.66 29 -2 29 C-2 24.38 -2 19.76 -2 15 C-1.34 15 -0.68 15 0 15 C0 10.05 0 5.1 0 0 Z " fill="#3D65BC" transform="translate(594,457)"/>
<path d="M0 0 C0.66 0.66 1.32 1.32 2 2 C1.34 2.66 0.68 3.32 0 4 C-0.6425235 6.06874034 -0.6425235 6.06874034 -1 8 C-1.66 8 -2.32 8 -3 8 C-2.67 8.99 -2.34 9.98 -2 11 C-2.33 11.99 -2.66 12.98 -3 14 C-3.66 14 -4.32 14 -5 14 C-5.33 14.66 -5.66 15.32 -6 16 C-6.77843805 9.9281832 -4.17016902 5.93714848 -1 1 C-0.67 0.67 -0.34 0.34 0 0 Z " fill="#2A337B" transform="translate(223,170)"/>
<path d="M0 0 C-1 2 -1 2 -3.6328125 2.9921875 C-4.74398437 3.32476562 -5.85515625 3.65734375 -7 4 C-8.13179687 4.35320313 -9.26359375 4.70640625 -10.4296875 5.0703125 C-12.13511719 5.59238281 -12.13511719 5.59238281 -13.875 6.125 C-15.02742188 6.47820313 -16.17984375 6.83140625 -17.3671875 7.1953125 C-18.67042969 7.59363281 -18.67042969 7.59363281 -20 8 C-20 7.34 -20 6.68 -20 6 C-17.60824639 4.98914564 -15.21238415 3.99120797 -12.8125 3 C-11.80219727 2.57074219 -11.80219727 2.57074219 -10.77148438 2.1328125 C-7.05006206 0.60793701 -4.03528592 -0.37610432 0 0 Z " fill="#30336A" transform="translate(95,5)"/>
<path d="M0 0 C0.66 0 1.32 0 2 0 C0.65150163 4.35970831 -1.04907846 8.31341438 -3.125 12.375 C-3.66382813 13.43460938 -4.20265625 14.49421875 -4.7578125 15.5859375 C-5.16773438 16.38257813 -5.57765625 17.17921875 -6 18 C-6.33 18 -6.66 18 -7 18 C-7.50710303 13.19157661 -5.83930651 10.32305971 -3.5 6.1875 C-3.16613281 5.59001953 -2.83226562 4.99253906 -2.48828125 4.37695312 C-1.66827367 2.91265388 -0.83540688 1.45556863 0 0 Z " fill="#24306F" transform="translate(161,136)"/>
<path d="M0 0 C1.32 0.33 2.64 0.66 4 1 C2.41728767 2.27160666 0.83380365 3.54225285 -0.75 4.8125 C-1.63171875 5.52019531 -2.5134375 6.22789062 -3.421875 6.95703125 C-4.69804688 7.96830078 -4.69804688 7.96830078 -6 9 C-6.72703125 9.58136719 -7.4540625 10.16273438 -8.203125 10.76171875 C-10 12 -10 12 -12 12 C-12 11.34 -12 10.68 -12 10 C-11.34 10 -10.68 10 -10 10 C-10 9.34 -10 8.68 -10 8 C-9.34 8 -8.68 8 -8 8 C-8 7.34 -8 6.68 -8 6 C-6.68 6 -5.36 6 -4 6 C-4 5.34 -4 4.68 -4 4 C-3.34 4 -2.68 4 -2 4 C-2 3.34 -2 2.68 -2 2 C-1.34 2 -0.68 2 0 2 C0 1.34 0 0.68 0 0 Z " fill="#4F78D6" transform="translate(550,554)"/>
<path d="M0 0 C0.33 0 0.66 0 1 0 C1.53132389 2.58157368 2.05034379 5.16461756 2.5625 7.75 C2.78969727 8.84441406 2.78969727 8.84441406 3.02148438 9.9609375 C3.74557178 13.66557073 4.09817231 16.39322322 3 20 C0.5705484 16.3558226 0.83820425 14.28758728 1 10 C0.34 10 -0.32 10 -1 10 C-0.67 6.7 -0.34 3.4 0 0 Z " fill="#425290" transform="translate(143,382)"/>
<path d="M0 0 C0.66 0 1.32 0 2 0 C1.48446121 6.49850211 0.53332291 12.66226532 -1 19 C-1.33 19 -1.66 19 -2 19 C-2.02705729 17.22925083 -2.04642195 15.45838289 -2.0625 13.6875 C-2.07410156 12.70136719 -2.08570313 11.71523437 -2.09765625 10.69921875 C-2 8 -2 8 -1 5 C-0.65179959 3.33637583 -0.31595508 1.67004829 0 0 Z " fill="#303976" transform="translate(146,172)"/>
<path d="M0 0 C0.66 0.33 1.32 0.66 2 1 C0.85793642 2.50287218 -0.28874957 4.00223284 -1.4375 5.5 C-2.39462891 6.75296875 -2.39462891 6.75296875 -3.37109375 8.03125 C-3.90863281 8.6809375 -4.44617188 9.330625 -5 10 C-5.33 10 -5.66 10 -6 10 C-6 8.02 -6 6.04 -6 4 C-5.34 4 -4.68 4 -4 4 C-4 3.34 -4 2.68 -4 2 C-2.68 2 -1.36 2 0 2 C0 1.34 0 0.68 0 0 Z " fill="#4972DC" transform="translate(566,538)"/>
<path d="M0 0 C0.66 0.33 1.32 0.66 2 1 C0.71389867 2.9829888 -0.57849139 4.96133376 -1.875 6.9375 C-2.59429688 8.03964844 -3.31359375 9.14179687 -4.0546875 10.27734375 C-6 13 -6 13 -8 14 C-7.34 12.02 -6.68 10.04 -6 8 C-5.34 8 -4.68 8 -4 8 C-4 6.68 -4 5.36 -4 4 C-3.34 4 -2.68 4 -2 4 C-2 3.34 -2 2.68 -2 2 C-1.34 2 -0.68 2 0 2 C0 1.34 0 0.68 0 0 Z " fill="#4A72D0" transform="translate(576,524)"/>
<path d="M0 0 C2.05078125 0.03255208 4.1015625 0.06510417 6.15234375 0.09765625 C6.15234375 0.42765625 6.15234375 0.75765625 6.15234375 1.09765625 C4.17234375 1.09765625 2.19234375 1.09765625 0.15234375 1.09765625 C0.15234375 2.41765625 0.15234375 3.73765625 0.15234375 5.09765625 C-0.50765625 5.09765625 -1.16765625 5.09765625 -1.84765625 5.09765625 C-1.84765625 6.41765625 -1.84765625 7.73765625 -1.84765625 9.09765625 C-0.85765625 9.42765625 0.13234375 9.75765625 1.15234375 10.09765625 C0.16234375 10.59265625 0.16234375 10.59265625 -0.84765625 11.09765625 C-1.50765625 10.76765625 -2.16765625 10.43765625 -2.84765625 10.09765625 C-2.87454841 8.61858733 -2.89400246 7.13938142 -2.91015625 5.66015625 C-2.92175781 4.83644531 -2.93335938 4.01273438 -2.9453125 3.1640625 C-2.8198894 0.51010975 -2.66068535 0.14062819 0 0 Z " fill="#DAE5F7" transform="translate(229.84765625,222.90234375)"/>
<path d="M0 0 C-1 3 -1 3 -3.65234375 4.5703125 C-5.27849609 5.33988281 -5.27849609 5.33988281 -6.9375 6.125 C-8.01902344 6.64320313 -9.10054688 7.16140625 -10.21484375 7.6953125 C-11.13394531 8.12585938 -12.05304688 8.55640625 -13 9 C-13.99 9.495 -13.99 9.495 -15 10 C-15 9.01 -15 8.02 -15 7 C-12.87767021 5.82823482 -10.75242209 4.66245215 -8.625 3.5 C-7.72007812 2.99919922 -7.72007812 2.99919922 -6.796875 2.48828125 C-2.2265625 0 -2.2265625 0 0 0 Z " fill="#449CDE" transform="translate(519,299)"/>
<path d="M0 0 C0.66 0 1.32 0 2 0 C1.43179252 5.45479185 0.05362055 9.91059256 -2 15 C-2.33 15 -2.66 15 -3 15 C-3 12.69 -3 10.38 -3 8 C-2.34 8 -1.68 8 -1 8 C-0.67 5.36 -0.34 2.72 0 0 Z " fill="#252D6A" transform="translate(151,156)"/>
<path d="M0 0 C0.99 0.33 1.98 0.66 3 1 C1.75023244 4.65316671 1.32901247 5.78065836 -2 8 C-2.66 6.68 -3.32 5.36 -4 4 C-3.34 4 -2.68 4 -2 4 C-2 3.34 -2 2.68 -2 2 C-1.34 2 -0.68 2 0 2 C0 1.34 0 0.68 0 0 Z " fill="#222D76" transform="translate(174,114)"/>
<path d="M0 0 C2.31 0.66 4.62 1.32 7 2 C7 2.66 7 3.32 7 4 C7.639375 4.2475 8.27875 4.495 8.9375 4.75 C11 6 11 6 11.62890625 8.078125 C11.81259766 9.02945313 11.81259766 9.02945313 12 10 C3.55353075 3.84965831 3.55353075 3.84965831 0 0 Z " fill="#323F7E" transform="translate(373,88)"/>
<path d="M0 0 C2.64 0 5.28 0 8 0 C8 0.66 8 1.32 8 2 C10.31 2 12.62 2 15 2 C14.67 2.66 14.34 3.32 14 4 C12.04020573 3.71831703 10.08217622 3.42433283 8.125 3.125 C6.48917969 2.88136719 6.48917969 2.88136719 4.8203125 2.6328125 C2 2 2 2 0 0 Z " fill="#4BA2E2" transform="translate(396,368)"/>
<path d="M0 0 C0.33 0 0.66 0 1 0 C0.88529863 1.75070517 0.75780972 3.50057536 0.625 5.25 C0.55539063 6.22453125 0.48578125 7.1990625 0.4140625 8.203125 C0.01534751 10.89633189 -0.63507063 12.66963279 -2 15 C-3.08056059 11.02840314 -2.85815614 8.57446843 -1.5625 4.6875 C-1.27503906 3.80449219 -0.98757812 2.92148438 -0.69140625 2.01171875 C-0.46324219 1.34785156 -0.23507813 0.68398437 0 0 Z " fill="#424F8B" transform="translate(214,187)"/>
<path d="M0 0 C0.66 0 1.32 0 2 0 C2 0.66 2 1.32 2 2 C2.66 2 3.32 2 4 2 C4 2.66 4 3.32 4 4 C4.66 4 5.32 4 6 4 C6 4.66 6 5.32 6 6 C6.66 6 7.32 6 8 6 C8 6.66 8 7.32 8 8 C8.66 8 9.32 8 10 8 C9.67 9.32 9.34 10.64 9 12 C7.49707257 10.18992669 5.99772829 8.37687764 4.5 6.5625 C3.6646875 5.55316406 2.829375 4.54382813 1.96875 3.50390625 C0 1 0 1 0 0 Z " fill="#33417D" transform="translate(398,110)"/>
<path d="M0 0 C1.98 0 3.96 0 6 0 C3.20803989 3.28465896 -0.23196817 5.01321958 -4 7 C-4.66 7 -5.32 7 -6 7 C-6 6.34 -6 5.68 -6 5 C-4.34467377 3.98133771 -2.67739862 2.98189187 -1 2 C-0.67 1.34 -0.34 0.68 0 0 Z " fill="#283170" transform="translate(216,80)"/>
<path d="M0 0 C1.32 0.33 2.64 0.66 4 1 C3.67 1.66 3.34 2.32 3 3 C4.65 2.67 6.3 2.34 8 2 C7.34 3.32 6.68 4.64 6 6 C4.35 6 2.7 6 1 6 C0.67 4.02 0.34 2.04 0 0 Z " fill="#B9BABB" transform="translate(83,0)"/>
<path d="M0 0 C0.66 0.99 1.32 1.98 2 3 C-3 9.57142857 -3 9.57142857 -8 11 C-7.59007812 10.45730469 -7.18015625 9.91460937 -6.7578125 9.35546875 C-6.21898437 8.64003906 -5.68015625 7.92460937 -5.125 7.1875 C-4.59132813 6.47980469 -4.05765625 5.77210938 -3.5078125 5.04296875 C-2.29185219 3.39543703 -1.13583859 1.70375789 0 0 Z " fill="#4A65B0" transform="translate(410,449)"/>
<path d="M0 0 C0.66 0 1.32 0 2 0 C2 0.66 2 1.32 2 2 C3.98 2 5.96 2 8 2 C8.33 2.99 8.66 3.98 9 5 C6 6 6 6 4.17578125 5.22265625 C2.45052083 4.1484375 0.72526042 3.07421875 -1 2 C-0.67 1.34 -0.34 0.68 0 0 Z " fill="#354383" transform="translate(358,78)"/>
<path d="M0 0 C-0.0625 1.8125 -0.0625 1.8125 -1 4 C-4.375 5.8125 -4.375 5.8125 -8 7 C-8.99 6.67 -9.98 6.34 -11 6 C-6.25 3 -6.25 3 -4 3 C-4 2.34 -4 1.68 -4 1 C-2 0 -2 0 0 0 Z " fill="#4198DE" transform="translate(533,290)"/>
<path d="M0 0 C1.32 0.33 2.64 0.66 4 1 C4 1.66 4 2.32 4 3 C5.1446875 3.2165625 5.1446875 3.2165625 6.3125 3.4375 C9 4 9 4 12 5 C12 5.66 12 6.32 12 7 C10.56068883 6.54738642 9.12361001 6.08767021 7.6875 5.625 C6.88699219 5.36976563 6.08648437 5.11453125 5.26171875 4.8515625 C3 4 3 4 0 2 C0 1.34 0 0.68 0 0 Z " fill="#6EB1E8" transform="translate(252,297)"/>
<path d="M0 0 C1.65322266 0.01740234 1.65322266 0.01740234 3.33984375 0.03515625 C4.99693359 0.04869141 4.99693359 0.04869141 6.6875 0.0625 C7.54214844 0.07410156 8.39679688 0.08570313 9.27734375 0.09765625 C7.04445605 2.33054395 6.3582456 2.46543777 3.33984375 2.84765625 C2.65019531 2.945625 1.96054688 3.04359375 1.25 3.14453125 C-0.72265625 3.09765625 -0.72265625 3.09765625 -3.72265625 1.09765625 C-2.72265625 0.09765625 -2.72265625 0.09765625 0 0 Z " fill="#373A78" transform="translate(114.72265625,-0.09765625)"/>
<path d="M0 0 C2.475 0.99 2.475 0.99 5 2 C5 2.66 5 3.32 5 4 C5.66 4 6.32 4 7 4 C7 4.66 7 5.32 7 6 C7.66 6 8.32 6 9 6 C8.67 6.99 8.34 7.98 8 9 C6.66079162 7.88200014 5.32877444 6.75538103 4 5.625 C2.88625 4.68527344 2.88625 4.68527344 1.75 3.7265625 C1.1725 3.15679688 0.595 2.58703125 0 2 C0 1.34 0 0.68 0 0 Z " fill="#32488A" transform="translate(41,552)"/>
<path d="M0 0 C4.12751449 0.60698743 7.3321148 2.03810791 11 4 C11 4.33 11 4.66 11 5 C9.35 5 7.7 5 6 5 C6 4.34 6 3.68 6 3 C4.02 3 2.04 3 0 3 C0 2.01 0 1.02 0 0 Z " fill="#66B5EC" transform="translate(344,299)"/>
<path d="M0 0 C1.32 0 2.64 0 4 0 C3.8125 2.3125 3.8125 2.3125 3 5 C0.4375 6.8125 0.4375 6.8125 -2 8 C-1.34 5.36 -0.68 2.72 0 0 Z " fill="#212B70" transform="translate(186,100)"/>
<path d="M0 0 C1.32 0 2.64 0 4 0 C4 0.66 4 1.32 4 2 C4.66 2.33 5.32 2.66 6 3 C0.25 6 0.25 6 -2 6 C-2 5.34 -2 4.68 -2 4 C-1.01 3.67 -0.02 3.34 1 3 C0.67 2.01 0.34 1.02 0 0 Z " fill="#446FD5" transform="translate(522,570)"/>
<path d="M0 0 C3.3 0 6.6 0 10 0 C10.33 0.99 10.66 1.98 11 3 C6.72213252 2.50639991 3.90432869 1.95216435 0 0 Z " fill="#39549A" transform="translate(394,384)"/>
<path d="M0 0 C0.99 0.33 1.98 0.66 3 1 C-1.455 3.97 -1.455 3.97 -6 7 C-6 6.01 -6 5.02 -6 4 C-5.34 4 -4.68 4 -4 4 C-4 3.34 -4 2.68 -4 2 C-2.68 2 -1.36 2 0 2 C0 1.34 0 0.68 0 0 Z " fill="#409DDF" transform="translate(502,352)"/>
<path d="M0 0 C0.99 0.33 1.98 0.66 3 1 C2.195625 1.61875 1.39125 2.2375 0.5625 2.875 C-2.03874519 4.74164041 -2.03874519 4.74164041 -3 7 C-3.66 7 -4.32 7 -5 7 C-5.33 6.01 -5.66 5.02 -6 4 C-3.1875 1.9375 -3.1875 1.9375 0 0 Z " fill="#B3D9F6" transform="translate(113,271)"/>
<path d="M0 0 C0.66 0 1.32 0 2 0 C0.49776416 4.20626034 -2.28550034 5.73900021 -6 8 C-6 6.68 -6 5.36 -6 4 C-4.68 4 -3.36 4 -2 4 C-2 3.34 -2 2.68 -2 2 C-1.34 2 -0.68 2 0 2 C0 1.34 0 0.68 0 0 Z " fill="#385190" transform="translate(478,180)"/>
<path d="M0 0 C-1.26239712 0.86658615 -2.53527501 1.71792059 -3.8125 2.5625 C-4.87404297 3.27599609 -4.87404297 3.27599609 -5.95703125 4.00390625 C-8 5 -8 5 -11 4 C-4.02040816 -2.01020408 -4.02040816 -2.01020408 0 0 Z " fill="#2E3A78" transform="translate(254,143)"/>
<path d="M0 0 C1.98 0 3.96 0 6 0 C2.79663178 2.83374881 0.21912747 3.5205537 -4 4 C-4 3.34 -4 2.68 -4 2 C-2.68 2 -1.36 2 0 2 C0 1.34 0 0.68 0 0 Z " fill="#486CD1" transform="translate(514,576)"/>
<path d="M0 0 C0.66 0.33 1.32 0.66 2 1 C0.70700306 3.88437779 -0.65941363 5.87219421 -3 8 C-3.66 7.67 -4.32 7.34 -5 7 C-3.35 4.69 -1.7 2.38 0 0 Z " fill="#4360B0" transform="translate(416,441)"/>
<path d="M0 0 C0.66 0 1.32 0 2 0 C1.875 1.75 1.875 1.75 1 4 C-2.0625 6.25 -2.0625 6.25 -5 8 C-3.63055898 5.05043472 -2.12169591 2.47531189 0 0 Z " fill="#B3C9E8" transform="translate(91,291)"/>
<path d="M0 0 C0.33 1.32 0.66 2.64 1 4 C-1.64 3.67 -4.28 3.34 -7 3 C-4.38058783 1.25372522 -2.96175123 0.61277612 0 0 Z " fill="#4583C1" transform="translate(436,268)"/>
<path d="M0 0 C0.66 0 1.32 0 2 0 C3.0326802 2.78823655 3.04509293 3.8677274 2.0625 6.75 C1.711875 7.4925 1.36125 8.235 1 9 C0.67 9 0.34 9 0 9 C0 6.03 0 3.06 0 0 Z " fill="#3756A2" transform="translate(376,378)"/>
<path d="M0 0 C-0.33 0.99 -0.66 1.98 -1 3 C-4.0625 4.1875 -4.0625 4.1875 -7 5 C-7.66 4.34 -8.32 3.68 -9 3 C-2.25 0 -2.25 0 0 0 Z " fill="#459DDE" transform="translate(503,307)"/>
<path d="M0 0 C2.66735273 2.48952921 4.55746343 4.63408134 6 8 C5.01 8 4.02 8 3 8 C3 7.34 3 6.68 3 6 C2.34 6 1.68 6 1 6 C0.67 4.02 0.34 2.04 0 0 Z " fill="#3F528F" transform="translate(169,448)"/>
<path d="M0 0 C0 1.32 0 2.64 0 4 C-1.32 4.33 -2.64 4.66 -4 5 C-4.33 3.68 -4.66 2.36 -5 1 C-2 0 -2 0 0 0 Z " fill="#3757B4" transform="translate(440,388)"/>
<path d="M0 0 C0.66 0.33 1.32 0.66 2 1 C0.6875 3.5 0.6875 3.5 -1 6 C-1.99 6 -2.98 6 -4 6 C-3.6875 4.125 -3.6875 4.125 -3 2 C-2.01 1.34 -1.02 0.68 0 0 Z " fill="#1F3180" transform="translate(95,292)"/>
<path d="M0 0 C0.99 0.33 1.98 0.66 3 1 C2.67 1.66 2.34 2.32 2 3 C3.32 3.33 4.64 3.66 6 4 C4.35 4 2.7 4 1 4 C0.67 2.68 0.34 1.36 0 0 Z " fill="#000000" transform="translate(539,573)"/>
<path d="M0 0 C0.66 0 1.32 0 2 0 C1.67 0.99 1.34 1.98 1 3 C0.01 2.67 -0.98 2.34 -2 2 C-1.34 2 -0.68 2 0 2 C0 1.34 0 0.68 0 0 Z " fill="#000000" transform="translate(587,526)"/>
<path d="M0 0 C0.66 0.66 1.32 1.32 2 2 C0.68 2.33 -0.64 2.66 -2 3 C-1.34 2.67 -0.68 2.34 0 2 C0 1.34 0 0.68 0 0 Z " fill="#000000" transform="translate(2,508)"/>
<path d="M0 0 C0.33 0.99 0.66 1.98 1 3 C0.34 3 -0.32 3 -1 3 C-0.67 2.01 -0.34 1.02 0 0 Z " fill="#000100" transform="translate(595,509)"/>
<path d="M0 0 C0 3 0 3 0 3 Z " fill="#000000" transform="translate(81,587)"/>
<path d="M0 0 C1 4 1 4 1 4 Z " fill="#000000" transform="translate(16,38)"/>
<path d="M0 0 C0.99 0.495 0.99 0.495 2 1 C1.67 1.66 1.34 2.32 1 3 C0.67 2.01 0.34 1.02 0 0 Z " fill="#000000" transform="translate(30,35)"/>
<path d="M0 0 C4 1 4 1 4 1 Z " fill="#000000" transform="translate(22,32)"/>
<path d="M0 0 C4 1 4 1 4 1 Z " fill="#000002" transform="translate(524,6)"/>
<path d="M0 0 C3 1 3 1 3 1 Z " fill="#000000" transform="translate(524,584)"/>
<path d="" fill="#000000" transform="translate(0,0)"/>
<path d="" fill="#000000" transform="translate(0,0)"/>
<path d="M0 0 C2 1 2 1 2 1 Z " fill="#010101" transform="translate(509,589)"/>
<path d="M0 0 C2 1 2 1 2 1 Z " fill="#000000" transform="translate(84,589)"/>
<path d="" fill="#000000" transform="translate(0,0)"/>
<path d="" fill="#000000" transform="translate(0,0)"/>
<path d="M0 0 C2 1 2 1 2 1 Z " fill="#020001" transform="translate(17,535)"/>
<path d="M0 0 C2 1 2 1 2 1 Z " fill="#000000" transform="translate(588,523)"/>
<path d="" fill="#000100" transform="translate(0,0)"/>
<path d="" fill="#000002" transform="translate(0,0)"/>
<path d="" fill="#000000" transform="translate(0,0)"/>
<path d="M0 0 C2 1 2 1 2 1 Z " fill="#000000" transform="translate(586,63)"/>
<path d="" fill="#000000" transform="translate(0,0)"/>
<path d="" fill="#000002" transform="translate(0,0)"/>
<path d="" fill="#000002" transform="translate(0,0)"/>
<path d="" fill="#000002" transform="translate(0,0)"/>
<path d="M0 0 C2 1 2 1 2 1 Z " fill="#000201" transform="translate(512,0)"/>
<path d="M0 0 C2 1 2 1 2 1 Z " fill="#000000" transform="translate(70,0)"/>
<path d="" fill="#000000" transform="translate(0,0)"/>
<path d="" fill="#000000" transform="translate(0,0)"/>
<path d="" fill="#000000" transform="translate(0,0)"/>
<path d="" fill="#000000" transform="translate(0,0)"/>
<path d="" fill="#000000" transform="translate(0,0)"/>
<path d="" fill="#000000" transform="translate(0,0)"/>
<path d="" fill="#000000" transform="translate(0,0)"/>
<path d="" fill="#000000" transform="translate(0,0)"/>
<path d="" fill="#000000" transform="translate(0,0)"/>
<path d="" fill="#000000" transform="translate(0,0)"/>
<path d="" fill="#000000" transform="translate(0,0)"/>
<path d="" fill="#000000" transform="translate(0,0)"/>
<path d="" fill="#000000" transform="translate(0,0)"/>
<path d="" fill="#000000" transform="translate(0,0)"/>
<path d="" fill="#000000" transform="translate(0,0)"/>
<path d="" fill="#000000" transform="translate(0,0)"/>
<path d="" fill="#010101" transform="translate(0,0)"/>
<path d="" fill="#000000" transform="translate(0,0)"/>
<path d="" fill="#000100" transform="translate(0,0)"/>
<path d="" fill="#000000" transform="translate(0,0)"/>
<path d="" fill="#010101" transform="translate(0,0)"/>
<path d="" fill="#020200" transform="translate(0,0)"/>
<path d="" fill="#000000" transform="translate(0,0)"/>
<path d="" fill="#030000" transform="translate(0,0)"/>
<path d="" fill="#020202" transform="translate(0,0)"/>
<path d="" fill="#000000" transform="translate(0,0)"/>
</svg>
